<svg version="1.1" viewBox="0.0 0.0 960.0 540.0" fill="none" stroke="none" stroke-linecap="square" stroke-miterlimit="10" xmlns:xlink="http://www.w3.org/1999/xlink" xmlns="http://www.w3.org/2000/svg"><clipPath id="g38c3abd4f99_7_224.0"><path d="m0 0l960.0 0l0 540.0l-960.0 0l0 -540.0z" clip-rule="nonzero"/></clipPath><g clip-path="url(#g38c3abd4f99_7_224.0)"><path fill="#27173a" d="m0 0l960.0 0l0 540.0l-960.0 0z" fill-rule="evenodd"/><path fill="#000000" fill-opacity="0.0" d="m948.16003 95.486046l0.4381714 37.946022l-32.6416 19.349106l-33.079346 -18.591675l-0.43792725 -37.943405l32.641357 -19.351723z" fill-rule="evenodd"/><path stroke="#ae77d6" stroke-width="1.0" stroke-miterlimit="1.027" stroke-linecap="butt" d="m948.16003 95.486046l0.4381714 37.946022l-32.6416 19.349106l-33.079346 -18.591675l-0.43792725 -37.943405l32.641357 -19.351723z" fill-rule="evenodd"/><path fill="#000000" fill-opacity="0.0" d="m1013.8854 94.72729l0.43798828 37.943398l-32.644226 19.349335l-33.07672 -18.591904l-0.4381714 -37.946014l32.6416 -19.349106z" fill-rule="evenodd"/><path stroke="#ae77d6" stroke-width="1.0" stroke-miterlimit="1.027" stroke-linecap="butt" d="m1013.8854 94.72729l0.43798828 37.943398l-32.644226 19.349335l-33.07672 -18.591904l-0.4381714 -37.946014l32.6416 -19.349106z" fill-rule="evenodd"/><path fill="#000000" fill-opacity="0.0" d="m980.3625 38.18798l0.43792725 37.943405l-32.6416 19.349106l-33.079346 -18.591675l-0.4381714 -37.94602l32.64447 -19.34671z" fill-rule="evenodd"/><path stroke="#ae77d6" stroke-width="1.0" stroke-miterlimit="1.027" stroke-linecap="butt" d="m980.3625 38.18798l0.43792725 37.943405l-32.6416 19.349106l-33.079346 -18.591675l-0.4381714 -37.94602l32.64447 -19.34671z" fill-rule="evenodd"/><path fill="#000000" fill-opacity="0.0" d="m946.84216 -18.35155l0.4381714 37.946014l-32.64447 19.34671l-33.07672 -18.591894l-0.43792725 -37.9434l32.6416 -19.349108z" fill-rule="evenodd"/><path stroke="#ae77d6" stroke-width="1.0" stroke-miterlimit="1.027" stroke-linecap="butt" d="m946.84216 -18.35155l0.4381714 37.946014l-32.64447 19.34671l-33.07672 -18.591894l-0.43792725 -37.9434l32.6416 -19.349108z" fill-rule="evenodd"/><path fill="#000000" fill-opacity="0.0" d="m1012.5672 -19.11291l0.43530273 37.94362l-32.641357 19.351723l-33.07672 -18.591892l-0.4381714 -37.946014l32.6416 -19.349108z" fill-rule="evenodd"/><path stroke="#ae77d6" stroke-width="1.0" stroke-miterlimit="1.027" stroke-linecap="butt" d="m1012.5672 -19.11291l0.43530273 37.94362l-32.641357 19.351723l-33.07672 -18.591892l-0.4381714 -37.946014l32.6416 -19.349108z" fill-rule="evenodd"/><path fill="#ae77d6" d="m946.8675 -15.23227c-1.6477661 0.13658237 -3.0948486 -1.0865316 -3.2314453 -2.7342882c-0.13653564 -1.6477547 1.0891724 -3.0950527 2.7369385 -3.2316341c1.6477661 -0.13658333 3.0950317 1.0891457 3.2316284 2.7369022c0.13659668 1.6477566 -1.0893555 3.0924368 -2.7371216 3.22902z" fill-rule="evenodd"/><path fill="#ae77d6" d="m1012.56165 22.528545c-1.6477661 0.13658333 -3.0950317 -1.0891476 -3.2316284 -2.7369022c-0.13659668 -1.6477566 1.0891724 -3.0950527 2.7368774 -3.231636c1.6451416 -0.13636589 3.0924683 1.0893631 3.229065 2.7371197c0.13653564 1.6477566 -1.0891724 3.0950527 -2.734314 3.2314186z" fill-rule="evenodd"/><path fill="#ae77d6" d="m980.76764 80.28803c-1.6477661 0.13658142 -3.0950317 -1.0891495 -3.2316284 -2.7369003c-0.13659668 -1.6477585 1.0891113 -3.0950546 2.7368774 -3.231636c1.6477661 -0.13658142 3.0924683 1.0893631 3.229004 2.7371216c0.13659668 1.6477509 -1.0864868 3.0948334 -2.734253 3.2314148z" fill-rule="evenodd"/><path fill="#000000" fill-opacity="0.0" d="m75.59055 38.5597l808.81885 0l0 60.125984l-808.81885 0z" fill-rule="evenodd"/><path fill="#ffffff" d="m329.52826 89.2072q-3.75 0 -7.25 -0.859375q-3.5 -0.859375 -5.765625 -2.21875l3.25 -7.328125q2.125 1.234375 4.75 1.984375q2.625 0.734375 5.109375 0.734375q1.4375 0 2.265625 -0.1875q0.84375 -0.1875 1.21875 -0.546875q0.390625 -0.375 0.390625 -0.875q0 -0.8125 -0.90625 -1.28125q-0.890625 -0.46875 -2.359375 -0.78125q-1.46875 -0.328125 -3.21875 -0.6875q-1.75 -0.375 -3.515625 -0.96875q-1.765625 -0.59375 -3.25 -1.578125q-1.46875 -0.984375 -2.359375 -2.578125q-0.890625 -1.609375 -0.890625 -3.984375q0 -2.78125 1.546875 -5.0625q1.5625 -2.28125 4.65625 -3.640625q3.09375 -1.375 7.6875 -1.375q3.03125 0 5.96875 0.640625q2.953125 0.640625 5.296875 1.96875l-3.03125 7.296875q-2.21875 -1.109375 -4.28125 -1.65625q-2.0625 -0.5625 -4.03125 -0.5625q-1.453125 0 -2.3125 0.25q-0.84375 0.25 -1.203125 0.6875q-0.359375 0.421875 -0.359375 0.9375q0 0.765625 0.890625 1.21875q0.890625 0.4375 2.359375 0.75q1.484375 0.296875 3.25 0.640625q1.765625 0.328125 3.515625 0.9375q1.75 0.59375 3.21875 1.578125q1.46875 0.96875 2.359375 2.546875q0.90625 1.578125 0.90625 3.921875q0 2.734375 -1.5625 5.015625q-1.546875 2.28125 -4.625 3.671875q-3.0625 1.390625 -7.71875 1.390625zm29.478241 -0.265625q-4.265625 0 -7.453125 -1.578125q-3.171875 -1.578125 -4.921875 -4.328125q-1.75 -2.75 -1.75 -6.203125q0 -3.546875 1.71875 -6.265625q1.734375 -2.734375 4.734375 -4.265625q3.015625 -1.546875 6.78125 -1.546875q3.453125 0 6.375 1.375q2.921875 1.359375 4.6875 4.046875q1.765625 2.6875 1.765625 6.65625q0 0.515625 -0.046875 1.140625q-0.03125 0.609375 -0.078125 1.125l-17.953125 0l0 -4.65625l12.84375 0l-3.625 1.234375q0 -1.359375 -0.5 -2.3125q-0.484375 -0.96875 -1.34375 -1.5q-0.84375 -0.53125 -2.046875 -0.53125q-1.1875 0 -2.0625 0.53125q-0.875 0.53125 -1.34375 1.5q-0.46875 0.953125 -0.46875 2.3125l0 1.453125q0 1.5 0.59375 2.5625q0.59375 1.0625 1.703125 1.59375q1.109375 0.53125 2.6875 0.53125q1.625 0 2.671875 -0.421875q1.046875 -0.421875 2.1875 -1.28125l5.03125 5.078125q-1.703125 1.828125 -4.203125 2.796875q-2.484375 0.953125 -5.984375 0.953125zm27.510742 0q-4.015625 0 -7.125 -1.53125q-3.109375 -1.53125 -4.890625 -4.28125q-1.765625 -2.75 -1.765625 -6.296875q0 -3.546875 1.765625 -6.265625q1.78125 -2.734375 4.890625 -4.265625q3.109375 -1.546875 7.125 -1.546875q4.265625 0 7.296875 1.84375q3.03125 1.828125 4.171875 5.078125l-7.453125 3.65625q-0.734375 -1.609375 -1.78125 -2.328125q-1.03125 -0.734375 -2.28125 -0.734375q-1.0625 0 -1.984375 0.515625q-0.90625 0.5 -1.453125 1.515625q-0.53125 1.0 -0.53125 2.53125q0 1.53125 0.53125 2.5625q0.546875 1.015625 1.453125 1.53125q0.921875 0.515625 1.984375 0.515625q1.25 0 2.28125 -0.71875q1.046875 -0.734375 1.78125 -2.359375l7.453125 3.671875q-1.140625 3.25 -4.171875 5.078125q-3.03125 1.828125 -7.296875 1.828125zm23.421051 0q-2.78125 0 -5.015625 -1.125q-2.234375 -1.125 -3.515625 -3.53125q-1.28125 -2.421875 -1.28125 -6.21875l0 -12.875l9.640625 0l0 11.21875q0 2.46875 0.8125 3.453125q0.8125 0.984375 2.21875 0.984375q0.84375 0 1.59375 -0.453125q0.75 -0.453125 1.21875 -1.484375q0.46875 -1.046875 0.46875 -2.765625l0 -10.953125l9.640625 0l0 23.328125l-9.171875 0l0 -6.734375l1.828125 1.828125q-1.234375 2.734375 -3.515625 4.03125q-2.28125 1.296875 -4.921875 1.296875zm20.039642 -0.421875l0 -23.328125l9.171875 0l0 7.03125l-1.484375 -2.0q1.0625 -2.734375 3.40625 -4.09375q2.34375 -1.375 5.640625 -1.375l0 8.53125q-0.640625 -0.078125 -1.140625 -0.125q-0.484375 -0.046875 -1.0 -0.046875q-2.171875 0 -3.5625 1.140625q-1.390625 1.125 -1.390625 3.90625l0 10.359375l-9.640625 0zm19.451233 0l0 -23.328125l9.640625 0l0 23.328125l-9.640625 0zm4.828125 -25.203125q-2.640625 0 -4.21875 -1.40625q-1.578125 -1.421875 -1.578125 -3.5q0 -2.09375 1.578125 -3.5q1.578125 -1.40625 4.21875 -1.40625q2.640625 0 4.21875 1.328125q1.578125 1.3125 1.578125 3.40625q0 2.21875 -1.578125 3.65625q-1.578125 1.421875 -4.21875 1.421875zm20.343384 25.625q-4.8125 0 -7.5 -2.3125q-2.6875 -2.328125 -2.6875 -7.15625l0 -19.53125l9.640625 0l0 19.453125q0 1.0625 0.5625 1.65625q0.578125 0.59375 1.4375 0.59375q1.234375 0 2.171875 -0.625l2.3125 6.6875q-1.109375 0.640625 -2.671875 0.9375q-1.5625 0.296875 -3.265625 0.296875zm-13.390625 -16.71875l0 -7.03125l17.609375 0l0 7.03125l-17.609375 0zm26.871857 25.0q-1.921875 0 -3.90625 -0.578125q-1.984375 -0.578125 -3.171875 -1.515625l3.203125 -6.609375q0.71875 0.546875 1.625 0.890625q0.921875 0.34375 1.78125 0.34375q1.28125 0 1.953125 -0.53125q0.6875 -0.53125 1.125 -1.59375l0.96875 -2.484375l0.6875 -0.9375l7.46875 -19.015625l9.125 0l-9.59375 23.796875q-1.28125 3.203125 -2.96875 4.984375q-1.6875 1.796875 -3.765625 2.515625q-2.0625 0.734375 -4.53125 0.734375zm2.265625 -7.640625l-10.15625 -24.390625l9.890625 0l7.0 18.171875l-6.734375 6.21875zm33.18933 -1.0625l0 -29.859375l13.9375 0q6.875 0 10.453125 3.03125q3.578125 3.03125 3.578125 8.234375q0 3.453125 -1.65625 5.953125q-1.65625 2.484375 -4.71875 3.8125q-3.046875 1.328125 -7.21875 1.328125l-8.796875 0l4.484375 -4.140625l0 11.640625l-10.0625 0zm17.859375 0l-7.328125 -10.875l10.65625 0l7.421875 10.875l-10.75 0zm-7.796875 -10.53125l-4.484375 -4.5625l8.15625 0q2.078125 0 3.078125 -0.9375q1.015625 -0.953125 1.015625 -2.5625q0 -1.625 -1.015625 -2.5625q-1.0 -0.9375 -3.078125 -0.9375l-8.15625 0l4.484375 -4.5625l0 16.125zm21.40387 10.53125l0 -23.328125l9.640625 0l0 23.328125l-9.640625 0zm4.828125 -25.203125q-2.640625 0 -4.21875 -1.40625q-1.578125 -1.421875 -1.578125 -3.5q0 -2.09375 1.578125 -3.5q1.578125 -1.40625 4.21875 -1.40625q2.640625 0 4.21875 1.328125q1.578125 1.3125 1.578125 3.40625q0 2.21875 -1.578125 3.65625q-1.578125 1.421875 -4.21875 1.421875zm18.218384 25.625q-2.984375 0 -5.890625 -0.640625q-2.90625 -0.640625 -4.6875 -1.65625l2.640625 -6.359375q1.65625 0.984375 3.859375 1.546875q2.203125 0.546875 4.28125 0.546875q1.75 0 2.359375 -0.296875q0.625 -0.296875 0.625 -0.8125q0 -0.515625 -0.71875 -0.75q-0.71875 -0.234375 -1.921875 -0.359375q-1.1875 -0.125 -2.625 -0.3125q-1.421875 -0.203125 -2.875 -0.578125q-1.453125 -0.390625 -2.65625 -1.15625q-1.1875 -0.765625 -1.90625 -2.0625q-0.71875 -1.3125 -0.71875 -3.3125q0 -2.21875 1.34375 -4.0q1.34375 -1.796875 4.0 -2.890625q2.671875 -1.09375 6.59375 -1.09375q2.5625 0 5.109375 0.46875q2.5625 0.46875 4.406311 1.453125l-2.656311 6.359375q-1.78125 -0.984375 -3.515625 -1.34375q-1.71875 -0.359375 -3.21875 -0.359375q-1.828125 0 -2.5 0.34375q-0.65625 0.328125 -0.65625 0.765625q0 0.515625 0.71875 0.765625q0.734375 0.25 1.921875 0.390625q1.203125 0.125 2.625 0.3125q1.4375 0.1875 2.859375 0.59375q1.4375 0.40625 2.625 1.171875q1.187561 0.765625 1.906311 2.078125q0.734375 1.296875 0.734375 3.296875q0 2.09375 -1.328125 3.90625q-1.312561 1.8125 -4.000061 2.90625q-2.6875 1.078125 -6.734375 1.078125zm23.022644 -4.265625l0.21875 -11.34375l8.0625 -8.140625l11.390625 0l-10.671875 11.171875l-4.8125 3.875l-4.1875 4.4375zm-8.0625 3.84375l0 -31.65625l9.640625 0l0 31.65625l-9.640625 0zm16.859375 0l-6.40625 -8.109375l5.9375 -7.296875l12.109375 15.40625l-11.640625 0zm21.329895 0.421875q-2.984375 0 -5.890625 -0.640625q-2.90625 -0.640625 -4.6875 -1.65625l2.640625 -6.359375q1.65625 0.984375 3.859375 1.546875q2.203125 0.546875 4.28125 0.546875q1.75 0 2.359375 -0.296875q0.625 -0.296875 0.625 -0.8125q0 -0.515625 -0.71875 -0.75q-0.71875 -0.234375 -1.921875 -0.359375q-1.1875 -0.125 -2.625 -0.3125q-1.421875 -0.203125 -2.875 -0.578125q-1.453125 -0.390625 -2.65625 -1.15625q-1.1875 -0.765625 -1.90625 -2.0625q-0.71875 -1.3125 -0.71875 -3.3125q0 -2.21875 1.34375 -4.0q1.34375 -1.796875 4.0 -2.890625q2.671875 -1.09375 6.59375 -1.09375q2.5625 0 5.109375 0.46875q2.5625 0.46875 4.40625 1.453125l-2.65625 6.359375q-1.78125 -0.984375 -3.515625 -1.34375q-1.71875 -0.359375 -3.21875 -0.359375q-1.828125 0 -2.5 0.34375q-0.65625 0.328125 -0.65625 0.765625q0 0.515625 0.71875 0.765625q0.734375 0.25 1.921875 0.390625q1.203125 0.125 2.625 0.3125q1.4375 0.1875 2.859375 0.59375q1.4375 0.40625 2.625 1.171875q1.1875 0.765625 1.90625 2.078125q0.734375 1.296875 0.734375 3.296875q0 2.09375 -1.328125 3.90625q-1.3125 1.8125 -4.0 2.90625q-2.6875 1.078125 -6.734375 1.078125z" fill-rule="nonzero"/><path fill="#000000" fill-opacity="0.0" d="m882.3899 498.672l57.606323 0l0 41.322815l-57.606323 0z" fill-rule="evenodd"/><path fill="#ffffff" d="m914.4691 524.4214q-1.296875 0 -2.484375 -0.421875q-1.171875 -0.4375 -1.875 -1.140625l0.609375 -0.984375q0.578125 0.59375 1.5625 1.0q1.0 0.390625 2.171875 0.390625q1.53125 0 2.328125 -0.671875q0.8125 -0.6875 0.8125 -1.796875q0 -0.78125 -0.375 -1.34375q-0.359375 -0.5625 -1.25 -0.875q-0.875 -0.3125 -2.421875 -0.3125l-2.578125 0l0.625 -6.078125l6.625 0l0 1.109375l-6.125 0l0.640625 -0.609375l-0.546875 5.09375l-0.640625 -0.625l2.28125 0q1.828125 0 2.9375 0.453125q1.109375 0.453125 1.59375 1.265625q0.5 0.796875 0.5 1.875q0 1.015625 -0.484375 1.859375q-0.484375 0.84375 -1.453125 1.328125q-0.96875 0.484375 -2.453125 0.484375zm5.760742 -3.296875l0 -0.90625l6.4375 -8.03125l1.390625 0l-6.390625 8.03125l-0.671875 -0.203125l9.765625 0l0 1.109375l-10.53125 0zm6.84375 3.1875l0 -3.1875l0.046875 -1.109375l0 -2.8125l1.203125 0l0 7.109375l-1.25 0z" fill-rule="nonzero"/><path fill="#000000" fill-opacity="0.0" d="m19.590551 122.09449l384.8189 0l0 438.89764l-384.8189 0z" fill-rule="evenodd"/><path fill="#ffffff" d="m204.81978 149.01448l0 -13.0625l5.578125 0q2.71875 0 4.234375 1.265625q1.515625 1.25 1.515625 3.46875q0 1.46875 -0.6875 2.53125q-0.6875 1.046875 -1.96875 1.609375q-1.265625 0.546875 -3.015625 0.546875l-3.96875 0l1.34375 -1.328125l0 4.96875l-3.03125 0zm8.296875 0l-3.265625 -4.734375l3.234375 0l3.296875 4.734375l-3.265625 0zm-5.265625 -4.625l-1.34375 -1.421875l3.796875 0q1.40625 0 2.09375 -0.59375q0.6875 -0.609375 0.6875 -1.6875q0 -1.078125 -0.6875 -1.671875q-0.6875 -0.59375 -2.09375 -0.59375l-3.796875 0l1.34375 -1.4375l0 7.40625zm10.477966 4.625l0 -10.03125l2.90625 0l0 10.03125l-2.90625 0zm1.453125 -11.4375q-0.796875 0 -1.3125 -0.46875q-0.5 -0.46875 -0.5 -1.15625q0 -0.6875 0.5 -1.15625q0.515625 -0.46875 1.3125 -0.46875q0.8125 0 1.3125 0.4375q0.5 0.4375 0.5 1.140625q0 0.71875 -0.5 1.203125q-0.484375 0.46875 -1.3125 0.46875zm7.5374146 11.59375q-1.28125 0 -2.46875 -0.3125q-1.1875 -0.3125 -1.875 -0.78125l0.96875 -2.078125q0.6875 0.421875 1.625 0.703125q0.953125 0.265625 1.859375 0.265625q1.015625 0 1.421875 -0.234375q0.421875 -0.25 0.421875 -0.6875q0 -0.359375 -0.328125 -0.53125q-0.3125 -0.171875 -0.859375 -0.265625q-0.546875 -0.09375 -1.1875 -0.1875q-0.640625 -0.09375 -1.296875 -0.25q-0.65625 -0.15625 -1.203125 -0.46875q-0.53125 -0.328125 -0.859375 -0.859375q-0.328125 -0.546875 -0.328125 -1.40625q0 -0.953125 0.546875 -1.671875q0.5625 -0.734375 1.609375 -1.15625q1.046875 -0.421875 2.5 -0.421875q1.015625 0 2.078125 0.234375q1.0625 0.21875 1.78125 0.640625l-0.96875 2.078125q-0.734375 -0.4375 -1.46875 -0.59375q-0.734375 -0.15625 -1.421875 -0.15625q-0.96875 0 -1.421875 0.265625q-0.453125 0.25 -0.453125 0.671875q0 0.375 0.328125 0.5625q0.328125 0.171875 0.859375 0.296875q0.546875 0.109375 1.1875 0.203125q0.65625 0.078125 1.296875 0.25q0.65625 0.15625 1.1875 0.46875q0.53125 0.296875 0.859375 0.828125q0.34375 0.53125 0.34375 1.390625q0 0.9375 -0.5625 1.65625q-0.546875 0.71875 -1.609375 1.140625q-1.046875 0.40625 -2.5625 0.40625zm8.937714 -2.203125l0.078125 -3.546875l4.671875 -4.4375l3.484375 0l-4.5 4.5625l-1.515625 1.234375l-2.21875 2.1875zm-2.40625 2.046875l0 -13.84375l2.90625 0l0 13.84375l-2.90625 0zm7.484375 0l-3.40625 -4.21875l1.828125 -2.25l5.09375 6.46875l-3.515625 0z" fill-rule="nonzero"/><path fill="#ae77d6" d="m46.990543 193.98636l-5.125 -5.109375l5.125 -5.140625l5.109375 5.140625l-5.109375 5.109375z" fill-rule="nonzero"/><path fill="#ffffff" d="m78.13743 193.81448l0 -13.0625l5.578125 0q2.71875 0 4.234375 1.265625q1.515625 1.25 1.515625 3.46875q0 1.46875 -0.6875 2.53125q-0.6875 1.046875 -1.96875 1.609375q-1.265625 0.546875 -3.015625 0.546875l-3.96875 0l1.34375 -1.328125l0 4.96875l-3.03125 0zm8.296875 0l-3.265625 -4.734375l3.234375 0l3.296875 4.734375l-3.265625 0zm-5.265625 -4.625l-1.34375 -1.421875l3.796875 0q1.40625 0 2.09375 -0.59375q0.6875 -0.609375 0.6875 -1.6875q0 -1.078125 -0.6875 -1.671875q-0.6875 -0.59375 -2.09375 -0.59375l-3.796875 0l1.34375 -1.4375l0 7.40625zm14.028305 4.84375q-1.375 0 -2.71875 -0.359375q-1.328125 -0.359375 -2.265625 -1.03125l1.171875 -2.3125q0.75 0.53125 1.734375 0.859375q0.984375 0.3125 2.0 0.3125q1.140625 0 1.78125 -0.4375q0.65625 -0.453125 0.65625 -1.25q0 -0.734375 -0.578125 -1.15625q-0.578125 -0.4375 -1.859375 -0.4375l-1.390625 0l0 -2.0l3.640625 -4.125l0.34375 1.078125l-6.84375 0l0 -2.421875l9.140625 0l0 1.96875l-3.625 4.109375l-1.53125 -0.875l0.875 0q2.40625 0 3.640625 1.09375q1.234375 1.078125 1.234375 2.765625q0 1.109375 -0.578125 2.078125q-0.578125 0.953125 -1.78125 1.546875q-1.1875 0.59375 -3.046875 0.59375zm8.51326 -6.765625q-0.734375 0 -1.265625 -0.515625q-0.53125 -0.515625 -0.53125 -1.3125q0 -0.8125 0.53125 -1.296875q0.53125 -0.5 1.265625 -0.5q0.765625 0 1.28125 0.5q0.53125 0.484375 0.53125 1.296875q0 0.796875 -0.53125 1.3125q-0.515625 0.515625 -1.28125 0.515625zm0 6.703125q-0.734375 0 -1.265625 -0.515625q-0.53125 -0.515625 -0.53125 -1.3125q0 -0.8125 0.53125 -1.296875q0.53125 -0.5 1.265625 -0.5q0.765625 0 1.28125 0.5q0.53125 0.484375 0.53125 1.296875q0 0.796875 -0.53125 1.3125q-0.515625 0.515625 -1.28125 0.515625z" fill-rule="nonzero"/><path fill="#ffffff" d="m117.17478 193.92386q-1.46875 0 -2.796875 -0.46875q-1.328125 -0.484375 -2.0625 -1.21875l0.546875 -1.078125q0.6875 0.671875 1.84375 1.140625q1.171875 0.453125 2.46875 0.453125q1.21875 0 1.984375 -0.296875q0.78125 -0.3125 1.140625 -0.828125q0.375 -0.53125 0.375 -1.171875q0 -0.765625 -0.4375 -1.234375q-0.4375 -0.46875 -1.15625 -0.734375q-0.703125 -0.265625 -1.5625 -0.46875q-0.859375 -0.203125 -1.71875 -0.4375q-0.859375 -0.234375 -1.578125 -0.625q-0.703125 -0.390625 -1.15625 -1.03125q-0.4375 -0.65625 -0.4375 -1.703125q0 -0.96875 0.515625 -1.78125q0.515625 -0.8125 1.578125 -1.296875q1.0625 -0.5 2.71875 -0.5q1.109375 0 2.1875 0.3125q1.078125 0.296875 1.875 0.84375l-0.46875 1.109375q-0.84375 -0.5625 -1.796875 -0.828125q-0.9375 -0.265625 -1.8125 -0.265625q-1.171875 0 -1.9375 0.328125q-0.765625 0.3125 -1.125 0.84375q-0.359375 0.53125 -0.359375 1.203125q0 0.765625 0.4375 1.234375q0.4375 0.46875 1.15625 0.734375q0.71875 0.25 1.5625 0.453125q0.859375 0.203125 1.703125 0.453125q0.859375 0.234375 1.578125 0.625q0.71875 0.375 1.15625 1.015625q0.4375 0.625 0.4375 1.65625q0 0.953125 -0.53125 1.765625q-0.515625 0.8125 -1.59375 1.3125q-1.0625 0.484375 -2.734375 0.484375zm11.629845 -0.015625q-1.2499924 0 -2.1874924 -0.46875q-0.921875 -0.46875 -1.4375 -1.390625q-0.515625 -0.9375 -0.515625 -2.34375l0 -5.6875l1.328125 0l0 5.546875q0 1.5625 0.765625 2.359375q0.78125 0.796875 2.1874924 0.796875q1.015625 0 1.765625 -0.421875q0.765625 -0.421875 1.15625 -1.21875q0.40625 -0.8125 0.40625 -1.9375l0 -5.125l1.328125 0l0 9.796875l-1.265625 0l0 -2.6875l0.203125 0.484375q-0.46875 1.078125 -1.453125 1.6875q-0.96875 0.609375 -2.28125 0.609375zm13.552628 0q-1.265625 0 -2.296875 -0.578125q-1.03125 -0.59375 -1.640625 -1.703125q-0.59375 -1.109375 -0.59375 -2.71875q0 -1.609375 0.59375 -2.71875q0.59375 -1.109375 1.609375 -1.6875q1.03125 -0.578125 2.328125 -0.578125q1.390625 0 2.5 0.625q1.109375 0.625 1.75 1.765625q0.640625 1.125 0.640625 2.59375q0 1.484375 -0.640625 2.609375q-0.640625 1.125 -1.75 1.765625q-1.109375 0.625 -2.5 0.625zm-5.0625 3.53125l0 -13.421875l1.265625 0l0 2.953125l-0.125 1.953125l0.1875 1.984375l0 6.53125l-1.328125 0zm4.96875 -4.703125q1.046875 0 1.859375 -0.46875q0.828125 -0.484375 1.3125 -1.34375q0.484375 -0.875 0.484375 -2.015625q0 -1.140625 -0.484375 -2.0q-0.484375 -0.859375 -1.3125 -1.34375q-0.8125 -0.484375 -1.859375 -0.484375q-1.046875 0 -1.875 0.484375q-0.828125 0.484375 -1.3125 1.34375q-0.46875 0.859375 -0.46875 2.0q0 1.140625 0.46875 2.015625q0.484375 0.859375 1.3125 1.34375q0.828125 0.46875 1.875 0.46875zm12.742691 1.171875q-1.265625 0 -2.296875 -0.578125q-1.03125 -0.59375 -1.640625 -1.703125q-0.59375 -1.109375 -0.59375 -2.71875q0 -1.609375 0.59375 -2.71875q0.59375 -1.109375 1.609375 -1.6875q1.03125 -0.578125 2.328125 -0.578125q1.390625 0 2.5 0.625q1.109375 0.625 1.75 1.765625q0.640625 1.125 0.640625 2.59375q0 1.484375 -0.640625 2.609375q-0.640625 1.125 -1.75 1.765625q-1.109375 0.625 -2.5 0.625zm-5.0625 3.53125l0 -13.421875l1.265625 0l0 2.953125l-0.125 1.953125l0.1875 1.984375l0 6.53125l-1.328125 0zm4.96875 -4.703125q1.046875 0 1.859375 -0.46875q0.828125 -0.484375 1.3125 -1.34375q0.484375 -0.875 0.484375 -2.015625q0 -1.140625 -0.484375 -2.0q-0.484375 -0.859375 -1.3125 -1.34375q-0.8125 -0.484375 -1.859375 -0.484375q-1.046875 0 -1.875 0.484375q-0.828125 0.484375 -1.3125 1.34375q-0.46875 0.859375 -0.46875 2.0q0 1.140625 0.46875 2.015625q0.484375 0.859375 1.3125 1.34375q0.828125 0.46875 1.875 0.46875zm7.680191 1.078125l0 -13.84375l1.328125 0l0 13.84375l-1.328125 0zm5.022003 3.71875q-0.6875 0 -1.3125 -0.234375q-0.625 -0.21875 -1.078125 -0.671875l0.625 -0.984375q0.359375 0.359375 0.796875 0.546875q0.453125 0.203125 0.984375 0.203125q0.65625 0 1.125 -0.375q0.484375 -0.359375 0.90625 -1.265625l0.640625 -1.4375l0.140625 -0.203125l4.03125 -9.09375l1.3125 0l-4.90625 10.96875q-0.40625 0.953125 -0.90625 1.515625q-0.5 0.5625 -1.078125 0.796875q-0.578125 0.234375 -1.28125 0.234375zm2.609375 -3.4375l-4.515625 -10.078125l1.390625 0l3.984375 9.0l-0.859375 1.078125zm16.374634 -0.1875q-1.453125 0 -2.59375 -0.640625q-1.140625 -0.640625 -1.796875 -1.765625q-0.65625 -1.140625 -0.65625 -2.59375q0 -1.46875 0.65625 -2.59375q0.65625 -1.125 1.796875 -1.75q1.140625 -0.640625 2.59375 -0.640625q1.25 0 2.25 0.484375q1.015625 0.484375 1.59375 1.453125l-0.984375 0.671875q-0.5 -0.734375 -1.25 -1.09375q-0.75 -0.359375 -1.625 -0.359375q-1.046875 0 -1.890625 0.484375q-0.828125 0.46875 -1.3125 1.328125q-0.484375 0.859375 -0.484375 2.015625q0 1.15625 0.484375 2.015625q0.484375 0.859375 1.3125 1.34375q0.84375 0.46875 1.890625 0.46875q0.875 0 1.625 -0.359375q0.75 -0.359375 1.25 -1.078125l0.984375 0.671875q-0.578125 0.953125 -1.59375 1.453125q-1.0 0.484375 -2.25 0.484375zm6.291626 -0.09375l0 -13.84375l1.328125 0l0 6.734375l-0.265625 -0.5q0.46875 -1.0625 1.484375 -1.671875q1.03125 -0.609375 2.453125 -0.609375q1.203125 0 2.09375 0.46875q0.90625 0.453125 1.421875 1.390625q0.515625 0.921875 0.515625 2.34375l0 5.6875l-1.328125 0l0 -5.5625q0 -1.546875 -0.78125 -2.328125q-0.765625 -0.796875 -2.15625 -0.796875q-1.046875 0 -1.828125 0.421875q-0.765625 0.40625 -1.1875 1.203125q-0.421875 0.796875 -0.421875 1.90625l0 5.15625l-1.328125 0zm18.752258 0l0 -2.171875l-0.0625 -0.34375l0 -3.625q0 -1.25 -0.703125 -1.921875q-0.6875 -0.671875 -2.0625 -0.671875q-0.953125 0 -1.8125 0.328125q-0.859375 0.3125 -1.453125 0.828125l-0.609375 -0.984375q0.75 -0.640625 1.796875 -0.984375q1.046875 -0.34375 2.203125 -0.34375q1.90625 0 2.9375 0.953125q1.03125 0.9375 1.03125 2.859375l0 6.078125l-1.265625 0zm-3.375 0.09375q-1.109375 0 -1.921875 -0.359375q-0.796875 -0.375 -1.234375 -1.015625q-0.421875 -0.640625 -0.421875 -1.484375q0 -0.765625 0.359375 -1.390625q0.359375 -0.625 1.1875 -1.0q0.84375 -0.390625 2.234375 -0.390625l3.375 0l0 1.0l-3.34375 0q-1.40625 0 -1.96875 0.5q-0.546875 0.5 -0.546875 1.25q0 0.84375 0.65625 1.34375q0.65625 0.5 1.828125 0.5q1.125 0 1.9375 -0.515625q0.8125 -0.515625 1.171875 -1.484375l0.3125 0.921875q-0.375 0.96875 -1.3125 1.546875q-0.921875 0.578125 -2.3125 0.578125zm8.241562 -0.09375l0 -9.796875l1.328125 0l0 9.796875l-1.328125 0zm0.671875 -11.953125q-0.40625 0 -0.6875 -0.28125q-0.28125 -0.28125 -0.28125 -0.671875q0 -0.390625 0.28125 -0.65625q0.28125 -0.28125 0.6875 -0.28125q0.40625 0 0.6875 0.265625q0.28125 0.25 0.28125 0.65625q0 0.40625 -0.265625 0.6875q-0.265625 0.28125 -0.703125 0.28125zm4.3466644 11.953125l0 -9.796875l1.265625 0l0 2.6875l-0.203125 -0.5q0.46875 -1.0625 1.484375 -1.671875q1.03125 -0.609375 2.453125 -0.609375q1.203125 0 2.09375 0.46875q0.90625 0.453125 1.421875 1.390625q0.515625 0.921875 0.515625 2.34375l0 5.6875l-1.328125 0l0 -5.5625q0 -1.546875 -0.78125 -2.328125q-0.765625 -0.796875 -2.15625 -0.796875q-1.046875 0 -1.828125 0.421875q-0.765625 0.40625 -1.1875 1.203125q-0.421875 0.796875 -0.421875 1.90625l0 5.15625l-1.328125 0zm23.640198 0l0 -2.171875l-0.0625 -0.34375l0 -3.625q0 -1.25 -0.703125 -1.921875q-0.6875 -0.671875 -2.0625 -0.671875q-0.953125 0 -1.8125 0.328125q-0.859375 0.3125 -1.453125 0.828125l-0.609375 -0.984375q0.75 -0.640625 1.796875 -0.984375q1.046875 -0.34375 2.203125 -0.34375q1.90625 0 2.9375 0.953125q1.03125 0.9375 1.03125 2.859375l0 6.078125l-1.265625 0zm-3.375 0.09375q-1.109375 0 -1.921875 -0.359375q-0.796875 -0.375 -1.234375 -1.015625q-0.421875 -0.640625 -0.421875 -1.484375q0 -0.765625 0.359375 -1.390625q0.359375 -0.625 1.1875 -1.0q0.84375 -0.390625 2.234375 -0.390625l3.375 0l0 1.0l-3.34375 0q-1.40625 0 -1.96875 0.5q-0.546875 0.5 -0.546875 1.25q0 0.84375 0.65625 1.34375q0.65625 0.5 1.828125 0.5q1.125 0 1.9375 -0.515625q0.8125 -0.515625 1.171875 -1.484375l0.3125 0.921875q-0.375 0.96875 -1.3125 1.546875q-0.921875 0.578125 -2.3125 0.578125zm11.335312 0q-1.375 0 -2.125 -0.75q-0.734375 -0.75 -0.734375 -2.109375l0 -9.1875l1.3125 0l0 9.125q0 0.84375 0.4375 1.3125q0.4375 0.46875 1.265625 0.46875q0.875 0 1.453125 -0.5l0.46875 0.953125q-0.390625 0.34375 -0.953125 0.515625q-0.546875 0.171875 -1.125 0.171875zm-4.625 -8.78125l0 -1.109375l6.0625 0l0 1.109375l-6.0625 0zm11.93811 8.78125q-1.375 0 -2.125 -0.75q-0.734375 -0.75 -0.734375 -2.109375l0 -9.1875l1.3125 0l0 9.125q0 0.84375 0.4375 1.3125q0.4375 0.46875 1.265625 0.46875q0.875 0 1.453125 -0.5l0.46875 0.953125q-0.390625 0.34375 -0.953125 0.515625q-0.546875 0.171875 -1.125 0.171875zm-4.6250153 -8.78125l0 -1.109375l6.0625153 0l0 1.109375l-6.0625153 0zm14.872971 8.6875l0 -2.171875l-0.0625 -0.34375l0 -3.625q0 -1.25 -0.703125 -1.921875q-0.6875 -0.671875 -2.0625 -0.671875q-0.953125 0 -1.8125 0.328125q-0.859375 0.3125 -1.453125 0.828125l-0.609375 -0.984375q0.75 -0.640625 1.796875 -0.984375q1.046875 -0.34375 2.203125 -0.34375q1.90625 0 2.9375 0.953125q1.03125 0.9375 1.03125 2.859375l0 6.078125l-1.265625 0zm-3.375 0.09375q-1.109375 0 -1.921875 -0.359375q-0.796875 -0.375 -1.234375 -1.015625q-0.421875 -0.640625 -0.421875 -1.484375q0 -0.765625 0.359375 -1.390625q0.359375 -0.625 1.1875 -1.0q0.84375 -0.390625 2.234375 -0.390625l3.375 0l0 1.0l-3.34375 0q-1.40625 0 -1.96875 0.5q-0.546875 0.5 -0.546875 1.25q0 0.84375 0.65625 1.34375q0.65625 0.5 1.828125 0.5q1.125 0 1.9375 -0.515625q0.8125 -0.515625 1.171875 -1.484375l0.3125 0.921875q-0.375 0.96875 -1.3125 1.546875q-0.921875 0.578125 -2.3125 0.578125zm12.304047 0q-1.453125 0 -2.59375 -0.640625q-1.140625 -0.640625 -1.7968445 -1.765625q-0.65625 -1.140625 -0.65625 -2.59375q0 -1.46875 0.65625 -2.59375q0.6562195 -1.125 1.7968445 -1.75q1.140625 -0.640625 2.59375 -0.640625q1.25 0 2.25 0.484375q1.015625 0.484375 1.59375 1.453125l-0.984375 0.671875q-0.5 -0.734375 -1.25 -1.09375q-0.75 -0.359375 -1.625 -0.359375q-1.046875 0 -1.890625 0.484375q-0.828125 0.46875 -1.3125 1.328125q-0.484375 0.859375 -0.484375 2.015625q0 1.15625 0.484375 2.015625q0.484375 0.859375 1.3125 1.34375q0.84375 0.46875 1.890625 0.46875q0.875 0 1.625 -0.359375q0.75 -0.359375 1.25 -1.078125l0.984375 0.671875q-0.578125 0.953125 -1.59375 1.453125q-1.0 0.484375 -2.25 0.484375zm7.338501 -2.625l0.03125 -1.703125l6.109375 -5.5625l1.625 0l-4.3125 4.125l-0.75 0.640625l-2.703125 2.5zm-1.046875 2.53125l0 -13.84375l1.328125 0l0 13.84375l-1.328125 0zm7.59375 0l-4.078125 -5.09375l0.859375 -1.03125l4.84375 6.125l-1.625 0zm5.904663 0.09375q-1.21875 0 -2.3125 -0.34375q-1.078125 -0.34375 -1.6875 -0.875l0.59375 -1.046875q0.59375 0.453125 1.53125 0.78125q0.9375 0.328125 1.96875 0.328125q1.390625 0 2.0 -0.4375q0.625 -0.4375 0.625 -1.171875q0 -0.53125 -0.34375 -0.84375q-0.34375 -0.3125 -0.90625 -0.46875q-0.5625 -0.15625 -1.25 -0.265625q-0.6875 -0.109375 -1.375 -0.265625q-0.671875 -0.15625 -1.234375 -0.4375q-0.5625 -0.296875 -0.90625 -0.796875q-0.34375 -0.5 -0.34375 -1.34375q0 -0.796875 0.4375 -1.421875q0.453125 -0.640625 1.3125 -1.0q0.875 -0.375 2.125 -0.375q0.953125 0 1.90625 0.25q0.953125 0.25 1.5625 0.671875l-0.578125 1.0625q-0.65625 -0.453125 -1.40625 -0.640625q-0.734375 -0.203125 -1.484375 -0.203125q-1.328125 0 -1.953125 0.46875q-0.625 0.453125 -0.625 1.15625q0 0.5625 0.34375 0.875q0.34375 0.3125 0.90625 0.5q0.578125 0.171875 1.25 0.28125q0.6875 0.109375 1.375 0.28125q0.6875 0.15625 1.25 0.421875q0.5625 0.265625 0.90625 0.765625q0.359375 0.5 0.359375 1.296875q0 0.859375 -0.484375 1.484375q-0.46875 0.625 -1.375 0.96875q-0.90625 0.34375 -2.1875 0.34375z" fill-rule="nonzero"/><path fill="#ffffff" d="m163.25894 238.61447l0 -13.0625l2.5 0l5.5625 9.21875l-1.328125 0l5.46875 -9.21875l2.484375 0l0.03125 13.0625l-2.828125 0l-0.03125 -8.71875l0.53125 0l-4.359375 7.34375l-1.375 0l-4.453125 -7.34375l0.640625 0l0 8.71875l-2.84375 0zm17.613602 0l0 -10.03125l2.90625 0l0 10.03125l-2.90625 0zm1.453125 -11.4375q-0.796875 0 -1.3125 -0.46875q-0.5 -0.46875 -0.5 -1.15625q0 -0.6875 0.5 -1.15625q0.515625 -0.46875 1.3125 -0.46875q0.8125 0 1.3125 0.4375q0.5 0.4375 0.5 1.140625q0 0.71875 -0.5 1.203125q-0.484375 0.46875 -1.3125 0.46875zm8.27179 11.59375q-1.78125 0 -2.765625 -0.90625q-0.984375 -0.90625 -0.984375 -2.703125l0 -8.796875l2.90625 0l0 8.765625q0 0.625 0.328125 0.96875q0.34375 0.34375 0.921875 0.34375q0.6875 0 1.171875 -0.359375l0.78125 2.046875q-0.4375 0.3125 -1.0625 0.484375q-0.625 0.15625 -1.296875 0.15625zm-5.296875 -7.953125l0 -2.234375l6.953125 0l0 2.234375l-6.953125 0zm9.302963 7.796875l0 -10.03125l2.90625 0l0 10.03125l-2.90625 0zm1.453125 -11.4375q-0.796875 0 -1.3125 -0.46875q-0.5 -0.46875 -0.5 -1.15625q0 -0.6875 0.5 -1.15625q0.515625 -0.46875 1.3125 -0.46875q0.8125 0 1.3125 0.4375q0.5 0.4375 0.5 1.140625q0 0.71875 -0.5 1.203125q-0.484375 0.46875 -1.3125 0.46875zm8.881165 15.203125q-1.421875 0 -2.734375 -0.34375q-1.3125 -0.34375 -2.1875 -1.03125l1.15625 -2.09375q0.625 0.53125 1.609375 0.828125q0.984375 0.3125 1.9375 0.3125q1.546875 0 2.234375 -0.6875q0.703125 -0.6875 0.703125 -2.0625l0 -1.5l0.1875 -2.515625l-0.03125 -2.546875l0 -2.15625l2.765625 0l0 8.359375q0 2.796875 -1.46875 4.109375q-1.453125 1.328125 -4.171875 1.328125zm-0.453125 -4.25q-1.390625 0 -2.53125 -0.609375q-1.125 -0.609375 -1.8125 -1.6875q-0.671875 -1.09375 -0.671875 -2.546875q0 -1.484375 0.671875 -2.578125q0.6875 -1.09375 1.8125 -1.6875q1.140625 -0.59375 2.53125 -0.59375q1.28125 0 2.25 0.515625q0.96875 0.515625 1.5 1.59375q0.546875 1.0625 0.546875 2.75q0 1.65625 -0.546875 2.734375q-0.53125 1.0625 -1.5 1.59375q-0.96875 0.515625 -2.25 0.515625zm0.578125 -2.390625q0.765625 0 1.359375 -0.296875q0.609375 -0.3125 0.9375 -0.875q0.34375 -0.5625 0.34375 -1.28125q0 -0.75 -0.34375 -1.296875q-0.328125 -0.5625 -0.9375 -0.859375q-0.59375 -0.3125 -1.359375 -0.3125q-0.765625 0 -1.359375 0.3125q-0.59375 0.296875 -0.9375 0.859375q-0.34375 0.546875 -0.34375 1.296875q0 0.71875 0.34375 1.28125q0.34375 0.5625 0.9375 0.875q0.59375 0.296875 1.359375 0.296875zm14.371872 2.875l0 -1.953125l-0.1875 -0.4375l0 -3.5q0 -0.9375 -0.578125 -1.453125q-0.5625 -0.53125 -1.734375 -0.53125q-0.796875 0 -1.578125 0.25q-0.765625 0.25 -1.3125 0.6875l-1.046875 -2.03125q0.828125 -0.578125 1.984375 -0.890625q1.15625 -0.328125 2.34375 -0.328125q2.296875 0 3.5625 1.09375q1.265625 1.078125 1.265625 3.359375l0 5.734375l-2.71875 0zm-3.0625 0.15625q-1.171875 0 -2.015625 -0.40625q-0.84375 -0.40625 -1.296875 -1.09375q-0.4375 -0.6875 -0.4375 -1.546875q0 -0.890625 0.4375 -1.5625q0.4375 -0.671875 1.390625 -1.046875q0.953125 -0.390625 2.484375 -0.390625l2.671875 0l0 1.6875l-2.359375 0q-1.015625 0 -1.40625 0.34375q-0.375 0.328125 -0.375 0.84375q0 0.546875 0.4375 0.875q0.4375 0.328125 1.203125 0.328125q0.71875 0 1.296875 -0.34375q0.578125 -0.34375 0.84375 -1.015625l0.453125 1.34375q-0.328125 0.96875 -1.171875 1.484375q-0.828125 0.5 -2.15625 0.5zm12.526535 0q-1.78125 0 -2.765625 -0.90625q-0.984375 -0.90625 -0.984375 -2.703125l0 -8.796875l2.90625 0l0 8.765625q0 0.625 0.328125 0.96875q0.34375 0.34375 0.921875 0.34375q0.6875 0 1.171875 -0.359375l0.78125 2.046875q-0.4375 0.3125 -1.0625 0.484375q-0.625 0.15625 -1.296875 0.15625zm-5.296875 -7.953125l0 -2.234375l6.953125 0l0 2.234375l-6.953125 0zm9.302963 7.796875l0 -10.03125l2.90625 0l0 10.03125l-2.90625 0zm1.453125 -11.4375q-0.796875 0 -1.3125 -0.46875q-0.5 -0.46875 -0.5 -1.15625q0 -0.6875 0.5 -1.15625q0.515625 -0.46875 1.3125 -0.46875q0.8125 0 1.3125 0.4375q0.5 0.4375 0.5 1.140625q0 0.71875 -0.5 1.203125q-0.484375 0.46875 -1.3125 0.46875zm8.943665 11.59375q-1.609375 0 -2.859375 -0.671875q-1.234375 -0.671875 -1.953125 -1.84375q-0.71875 -1.171875 -0.71875 -2.65625q0 -1.515625 0.71875 -2.671875q0.71875 -1.171875 1.953125 -1.828125q1.25 -0.671875 2.859375 -0.671875q1.578125 0 2.828125 0.671875q1.25 0.65625 1.953125 1.8125q0.71875 1.15625 0.71875 2.6875q0 1.484375 -0.71875 2.65625q-0.703125 1.171875 -1.953125 1.84375q-1.25 0.671875 -2.828125 0.671875zm0 -2.390625q0.71875 0 1.296875 -0.328125q0.578125 -0.34375 0.90625 -0.96875q0.34375 -0.625 0.34375 -1.484375q0 -0.875 -0.34375 -1.484375q-0.328125 -0.625 -0.90625 -0.953125q-0.578125 -0.34375 -1.296875 -0.34375q-0.734375 0 -1.3125 0.34375q-0.578125 0.328125 -0.921875 0.953125q-0.34375 0.609375 -0.34375 1.484375q0 0.859375 0.34375 1.484375q0.34375 0.625 0.921875 0.96875q0.578125 0.328125 1.3125 0.328125zm7.4385986 2.234375l0 -10.03125l2.78125 0l0 2.78125l-0.53125 -0.84375q0.546875 -1.015625 1.546875 -1.546875q1.015625 -0.546875 2.2968903 -0.546875q1.203125 0 2.140625 0.484375q0.9375 0.46875 1.484375 1.453125q0.546875 0.96875 0.546875 2.5l0 5.75l-2.921875 0l0 -5.296875q0 -1.21875 -0.53125 -1.796875q-0.53125 -0.578125 -1.5 -0.578125q-0.68751526 0 -1.2343903 0.296875q-0.546875 0.28125 -0.859375 0.890625q-0.3125 0.59375 -0.3125 1.515625l0 4.96875l-2.90625 0z" fill-rule="nonzero"/><path fill="#ae77d6" d="m46.990543 283.58633l-5.125 -5.109375l5.125 -5.140625l5.109375 5.140625l-5.109375 5.109375z" fill-rule="nonzero"/><path fill="#ffffff" d="m78.13743 283.41446l0 -13.0625l2.5 0l5.5625 9.21875l-1.328125 0l5.46875 -9.21875l2.484375 0l0.03125 13.0625l-2.828125 0l-0.03125 -8.71875l0.53125 0l-4.359375 7.34375l-1.375 0l-4.453125 -7.34375l0.640625 0l0 8.71875l-2.84375 0zm21.238602 0.21875q-1.375 0 -2.71875 -0.359375q-1.328125 -0.359375 -2.265625 -1.03125l1.171875 -2.3125q0.75 0.53125 1.734375 0.859375q0.984375 0.3125 2.0 0.3125q1.140625 0 1.78125 -0.4375q0.65625 -0.453125 0.65625 -1.25q0 -0.734375 -0.578125 -1.15625q-0.578125 -0.4375 -1.859375 -0.4375l-1.390625 0l0 -2.0l3.640625 -4.125l0.34375 1.078125l-6.84375 0l0 -2.421875l9.140625 0l0 1.96875l-3.625 4.109375l-1.53125 -0.875l0.875 0q2.40625 0 3.640625 1.09375q1.234375 1.078125 1.234375 2.765625q0 1.109375 -0.578125 2.078125q-0.578125 0.953125 -1.78125 1.546875q-1.1875 0.59375 -3.046875 0.59375zm8.51326 -6.765625q-0.734375 0 -1.265625 -0.515625q-0.53125 -0.515625 -0.53125 -1.3125q0 -0.8125 0.53125 -1.296875q0.53125 -0.5 1.265625 -0.5q0.765625 0 1.28125 0.5q0.53125 0.484375 0.53125 1.296875q0 0.796875 -0.53125 1.3125q-0.515625 0.515625 -1.28125 0.515625zm0 6.703125q-0.734375 0 -1.265625 -0.515625q-0.53125 -0.515625 -0.53125 -1.3125q0 -0.8125 0.53125 -1.296875q0.53125 -0.5 1.265625 -0.5q0.765625 0 1.28125 0.5q0.53125 0.484375 0.53125 1.296875q0 0.796875 -0.53125 1.3125q-0.515625 0.515625 -1.28125 0.515625z" fill-rule="nonzero"/><path fill="#ffffff" d="m117.74445 283.41446l0 -13.0625l1.140625 0l5.96875 10.1875l-0.59375 0l5.9062424 -10.1875l1.140625 0l0 13.0625l-1.328125 0l0 -10.984375l0.328125 0l-5.4531174 9.328125l-0.65625 0l-5.484375 -9.328125l0.359375 0l0 10.984375l-1.328125 0zm23.676094 0l0 -2.171875l-0.0625 -0.34375l0 -3.625q0 -1.25 -0.703125 -1.921875q-0.6875 -0.671875 -2.0625 -0.671875q-0.953125 0 -1.8125 0.328125q-0.859375 0.3125 -1.453125 0.828125l-0.609375 -0.984375q0.75 -0.640625 1.796875 -0.984375q1.046875 -0.34375 2.203125 -0.34375q1.90625 0 2.9375 0.953125q1.03125 0.9375 1.03125 2.859375l0 6.078125l-1.265625 0zm-3.375 0.09375q-1.109375 0 -1.921875 -0.359375q-0.796875 -0.375 -1.234375 -1.015625q-0.421875 -0.640625 -0.421875 -1.484375q0 -0.765625 0.359375 -1.390625q0.359375 -0.625 1.1875 -1.0q0.84375 -0.390625 2.234375 -0.390625l3.375 0l0 1.0l-3.34375 0q-1.40625 0 -1.96875 0.5q-0.546875 0.5 -0.546875 1.25q0 0.84375 0.65625 1.34375q0.65625 0.5 1.828125 0.5q1.125 0 1.9375 -0.515625q0.8125 -0.515625 1.171875 -1.484375l0.3125 0.921875q-0.375 0.96875 -1.3125 1.546875q-0.921875 0.578125 -2.3125 0.578125zm8.241562 -0.09375l0 -13.84375l1.328125 0l0 13.84375l-1.328125 0zm7.0185394 0l-3.6875 -9.796875l1.265625 0l3.359375 9.09375l-0.578125 0l3.453125 -9.09375l1.125 0l3.421875 9.09375l-0.578125 0l3.40625 -9.09375l1.21875 0l-3.71875 9.796875l-1.25 0l-3.28125 -8.546875l0.390625 0l-3.296875 8.546875l-1.25 0zm20.166138 0l0 -2.171875l-0.0625 -0.34375l0 -3.625q0 -1.25 -0.703125 -1.921875q-0.6875 -0.671875 -2.0625 -0.671875q-0.953125 0 -1.8125 0.328125q-0.859375 0.3125 -1.453125 0.828125l-0.609375 -0.984375q0.75 -0.640625 1.796875 -0.984375q1.046875 -0.34375 2.203125 -0.34375q1.90625 0 2.9375 0.953125q1.03125 0.9375 1.03125 2.859375l0 6.078125l-1.265625 0zm-3.375 0.09375q-1.109375 0 -1.921875 -0.359375q-0.796875 -0.375 -1.234375 -1.015625q-0.421875 -0.640625 -0.421875 -1.484375q0 -0.765625 0.359375 -1.390625q0.359375 -0.625 1.1875 -1.0q0.84375 -0.390625 2.234375 -0.390625l3.375 0l0 1.0l-3.34375 0q-1.40625 0 -1.96875 0.5q-0.546875 0.5 -0.546875 1.25q0 0.84375 0.65625 1.34375q0.65625 0.5 1.828125 0.5q1.125 0 1.9375 -0.515625q0.8125 -0.515625 1.171875 -1.484375l0.3125 0.921875q-0.375 0.96875 -1.3125 1.546875q-0.921875 0.578125 -2.3125 0.578125zm8.241562 -0.09375l0 -9.796875l1.265625 0l0 2.671875l-0.125 -0.46875q0.40625 -1.125 1.375 -1.703125q0.96875 -0.59375 2.40625 -0.59375l0 1.296875q-0.0625 0 -0.140625 -0.015625q-0.078125 -0.015625 -0.15625 -0.015625q-1.546875 0 -2.421875 0.953125q-0.875 0.9375 -0.875 2.671875l0 5.0l-1.328125 0zm11.394745 0.09375q-1.515625 0 -2.671875 -0.640625q-1.15625 -0.640625 -1.8125 -1.765625q-0.65625 -1.140625 -0.65625 -2.59375q0 -1.453125 0.625 -2.5625q0.625 -1.125 1.71875 -1.765625q1.09375 -0.65625 2.453125 -0.65625q1.375 0 2.4375 0.625q1.078125 0.625 1.6875 1.765625q0.625 1.125 0.625 2.59375q0 0.09375 -0.015625 0.203125q0 0.09375 0 0.203125l-8.53125 0l0 -0.984375l7.828125 0l-0.53125 0.390625q0 -1.0625 -0.453125 -1.890625q-0.453125 -0.828125 -1.25 -1.296875q-0.78125 -0.46875 -1.796875 -0.46875q-1.015625 0 -1.8125 0.46875q-0.796875 0.46875 -1.25 1.3125q-0.453125 0.828125 -0.453125 1.90625l0 0.21875q0 1.109375 0.5 1.96875q0.5 0.84375 1.375 1.328125q0.890625 0.46875 2.03125 0.46875q0.890625 0 1.65625 -0.3125q0.78125 -0.328125 1.34375 -0.984375l0.75 0.859375q-0.65625 0.78125 -1.640625 1.203125q-0.96875 0.40625 -2.15625 0.40625zm14.640686 0q-1.21875 0 -2.3125 -0.34375q-1.078125 -0.34375 -1.6875 -0.875l0.59375 -1.046875q0.59375 0.453125 1.53125 0.78125q0.9375 0.328125 1.96875 0.328125q1.390625 0 2.0 -0.4375q0.625 -0.4375 0.625 -1.171875q0 -0.53125 -0.34375 -0.84375q-0.34375 -0.3125 -0.90625 -0.46875q-0.5625 -0.15625 -1.25 -0.265625q-0.6875 -0.109375 -1.375 -0.265625q-0.671875 -0.15625 -1.234375 -0.4375q-0.5625 -0.296875 -0.90625 -0.796875q-0.34375 -0.5 -0.34375 -1.34375q0 -0.796875 0.4375 -1.421875q0.453125 -0.640625 1.3125 -1.0q0.875 -0.375 2.125 -0.375q0.953125 0 1.90625 0.25q0.953125 0.25 1.5625 0.671875l-0.578125 1.0625q-0.65625 -0.453125 -1.40625 -0.640625q-0.734375 -0.203125 -1.484375 -0.203125q-1.328125 0 -1.953125 0.46875q-0.625 0.453125 -0.625 1.15625q0 0.5625 0.34375 0.875q0.34375 0.3125 0.90625 0.5q0.578125 0.171875 1.25 0.28125q0.6875 0.109375 1.375 0.28125q0.6875 0.15625 1.25 0.421875q0.5625 0.265625 0.90625 0.765625q0.359375 0.5 0.359375 1.296875q0 0.859375 -0.484375 1.484375q-0.46875 0.625 -1.375 0.96875q-0.90625 0.34375 -2.1875 0.34375zm10.526123 0q-1.453125 0 -2.59375 -0.640625q-1.140625 -0.640625 -1.796875 -1.765625q-0.65625 -1.140625 -0.65625 -2.59375q0 -1.46875 0.65625 -2.59375q0.65625 -1.125 1.796875 -1.75q1.140625 -0.640625 2.59375 -0.640625q1.25 0 2.25 0.484375q1.015625 0.484375 1.59375 1.453125l-0.984375 0.671875q-0.5 -0.734375 -1.25 -1.09375q-0.75 -0.359375 -1.625 -0.359375q-1.046875 0 -1.890625 0.484375q-0.828125 0.46875 -1.3125 1.328125q-0.484375 0.859375 -0.484375 2.015625q0 1.15625 0.484375 2.015625q0.484375 0.859375 1.3125 1.34375q0.84375 0.46875 1.890625 0.46875q0.875 0 1.625 -0.359375q0.75 -0.359375 1.25 -1.078125l0.984375 0.671875q-0.578125 0.953125 -1.59375 1.453125q-1.0 0.484375 -2.25 0.484375zm12.581589 -0.09375l0 -2.171875l-0.0625 -0.34375l0 -3.625q0 -1.25 -0.703125 -1.921875q-0.6875 -0.671875 -2.0625 -0.671875q-0.953125 0 -1.8125 0.328125q-0.859375 0.3125 -1.453125 0.828125l-0.609375 -0.984375q0.75 -0.640625 1.796875 -0.984375q1.046875 -0.34375 2.203125 -0.34375q1.90625 0 2.9375 0.953125q1.03125 0.9375 1.03125 2.859375l0 6.078125l-1.265625 0zm-3.375 0.09375q-1.109375 0 -1.921875 -0.359375q-0.796875 -0.375 -1.234375 -1.015625q-0.421875 -0.640625 -0.421875 -1.484375q0 -0.765625 0.359375 -1.390625q0.359375 -0.625 1.1875 -1.0q0.84375 -0.390625 2.234375 -0.390625l3.375 0l0 1.0l-3.34375 0q-1.40625 0 -1.96875 0.5q-0.546875 0.5 -0.546875 1.25q0 0.84375 0.65625 1.34375q0.65625 0.5 1.828125 0.5q1.125 0 1.9375 -0.515625q0.8125 -0.515625 1.171875 -1.484375l0.3125 0.921875q-0.375 0.96875 -1.3125 1.546875q-0.921875 0.578125 -2.3125 0.578125zm8.241562 -0.09375l0 -9.796875l1.265625 0l0 2.6875l-0.203125 -0.5q0.46875 -1.0625 1.484375 -1.671875q1.03125 -0.609375 2.453125 -0.609375q1.203125 0 2.09375 0.46875q0.90625 0.453125 1.421875 1.390625q0.515625 0.921875 0.515625 2.34375l0 5.6875l-1.328125 0l0 -5.5625q0 -1.546875 -0.78125 -2.328125q-0.765625 -0.796875 -2.15625 -0.796875q-1.046875 0 -1.828125 0.421875q-0.765625 0.40625 -1.1875 1.203125q-0.421875 0.796875 -0.421875 1.90625l0 5.15625l-1.328125 0zm12.611633 0l0 -9.796875l1.265625 0l0 2.6875l-0.203125 -0.5q0.46875 -1.0625 1.484375 -1.671875q1.03125 -0.609375 2.453125 -0.609375q1.203125 0 2.09375 0.46875q0.90625 0.453125 1.421875 1.390625q0.515625 0.921875 0.515625 2.34375l0 5.6875l-1.328125 0l0 -5.5625q0 -1.546875 -0.78125 -2.328125q-0.765625 -0.796875 -2.15625 -0.796875q-1.046875 0 -1.828125 0.421875q-0.765625 0.40625 -1.1875 1.203125q-0.421875 0.796875 -0.421875 1.90625l0 5.15625l-1.328125 0zm12.611633 0l0 -9.796875l1.328125 0l0 9.796875l-1.328125 0zm0.671875 -11.953125q-0.40625 0 -0.6875 -0.28125q-0.28125 -0.28125 -0.28125 -0.671875q0 -0.390625 0.28125 -0.65625q0.28125 -0.28125 0.6875 -0.28125q0.40625 0 0.6875 0.265625q0.28125 0.25 0.28125 0.65625q0 0.40625 -0.265625 0.6875q-0.265625 0.28125 -0.703125 0.28125zm4.3466797 11.953125l0 -9.796875l1.265625 0l0 2.6875l-0.203125 -0.5q0.46875 -1.0625 1.484375 -1.671875q1.03125 -0.609375 2.453125 -0.609375q1.203125 0 2.09375 0.46875q0.90625 0.453125 1.421875 1.390625q0.515625 0.921875 0.515625 2.34375l0 5.6875l-1.328125 0l0 -5.5625q0 -1.546875 -0.78125 -2.328125q-0.765625 -0.796875 -2.15625 -0.796875q-1.046875 0 -1.828125 0.421875q-0.765625 0.40625 -1.1875 1.203125q-0.421875 0.796875 -0.421875 1.90625l0 5.15625l-1.328125 0zm16.799133 3.71875q-1.34375 0 -2.578125 -0.40625q-1.234375 -0.390625 -2.0 -1.109375l0.671875 -1.015625q0.6875 0.625 1.703125 0.984375q1.015625 0.359375 2.15625 0.359375q1.875 0 2.75 -0.875q0.875 -0.859375 0.875 -2.6875l0 -2.4375l0.1875 -1.6875l-0.140625 -1.671875l0 -2.96875l1.28125 0l0 8.609375q0 2.53125 -1.25 3.71875q-1.234375 1.1875 -3.65625 1.1875zm-0.25 -4.09375q-1.390625 0 -2.515625 -0.59375q-1.125 -0.609375 -1.765625 -1.6875q-0.640625 -1.09375 -0.640625 -2.5q0 -1.390625 0.640625 -2.453125q0.640625 -1.078125 1.765625 -1.671875q1.125 -0.609375 2.515625 -0.609375q1.3125 0 2.34375 0.546875q1.046875 0.53125 1.65625 1.609375q0.625 1.0625 0.625 2.578125q0 1.53125 -0.625 2.59375q-0.609375 1.0625 -1.65625 1.625q-1.03125 0.5625 -2.34375 0.5625zm0.125 -1.171875q1.09375 0 1.921875 -0.453125q0.84375 -0.46875 1.328125 -1.265625q0.484375 -0.8125 0.484375 -1.890625q0 -1.0625 -0.484375 -1.859375q-0.484375 -0.796875 -1.328125 -1.25q-0.828125 -0.46875 -1.921875 -0.46875q-1.0625 0 -1.90625 0.46875q-0.84375 0.453125 -1.328125 1.25q-0.46875 0.796875 -0.46875 1.859375q0 1.078125 0.46875 1.890625q0.484375 0.796875 1.328125 1.265625q0.84375 0.453125 1.90625 0.453125zm17.60498 1.640625q-1.421875 0 -2.546875 -0.640625q-1.125 -0.640625 -1.78125 -1.765625q-0.65625 -1.140625 -0.65625 -2.59375q0 -1.46875 0.65625 -2.59375q0.65625 -1.125 1.765625 -1.75q1.125 -0.640625 2.5625 -0.640625q1.453125 0 2.578125 0.640625q1.125 0.625 1.765625 1.75q0.65625 1.125 0.65625 2.59375q0 1.453125 -0.65625 2.59375q-0.640625 1.125 -1.78125 1.765625q-1.125 0.640625 -2.5625 0.640625zm0 -1.171875q1.0625 0 1.875 -0.46875q0.828125 -0.484375 1.296875 -1.34375q0.484375 -0.875 0.484375 -2.015625q0 -1.15625 -0.484375 -2.015625q-0.46875 -0.859375 -1.296875 -1.328125q-0.8125 -0.484375 -1.859375 -0.484375q-1.046875 0 -1.875 0.484375q-0.8125 0.46875 -1.296875 1.328125q-0.484375 0.859375 -0.484375 2.015625q0 1.140625 0.484375 2.015625q0.484375 0.859375 1.296875 1.34375q0.828125 0.46875 1.859375 0.46875zm7.6974487 1.078125l0 -9.796875l1.265625 0l0 2.6875l-0.203125 -0.5q0.46875 -1.0625 1.484375 -1.671875q1.03125 -0.609375 2.453125 -0.609375q1.203125 0 2.09375 0.46875q0.90625 0.453125 1.421875 1.390625q0.515625 0.921875 0.515625 2.34375l0 5.6875l-1.328125 0l0 -5.5625q0 -1.546875 -0.78125 -2.328125q-0.765625 -0.796875 -2.15625 -0.796875q-1.046875 0 -1.828125 0.421875q-0.765625 0.40625 -1.1875 1.203125q-0.421875 0.796875 -0.421875 1.90625l0 5.15625l-1.328125 0zm23.640198 0l0 -2.171875l-0.0625 -0.34375l0 -3.625q0 -1.25 -0.703125 -1.921875q-0.6875 -0.671875 -2.0625 -0.671875q-0.953125 0 -1.8125 0.328125q-0.859375 0.3125 -1.453125 0.828125l-0.609375 -0.984375q0.75 -0.640625 1.796875 -0.984375q1.046875 -0.34375 2.203125 -0.34375q1.90625 0 2.9375 0.953125q1.03125 0.9375 1.03125 2.859375l0 6.078125l-1.265625 0zm-3.375 0.09375q-1.109375 0 -1.921875 -0.359375q-0.796875 -0.375 -1.234375 -1.015625q-0.421875 -0.640625 -0.421875 -1.484375q0 -0.765625 0.359375 -1.390625q0.359375 -0.625 1.1875 -1.0q0.84375 -0.390625 2.234375 -0.390625l3.375 0l0 1.0l-3.34375 0q-1.40625 0 -1.96875 0.5q-0.546875 0.5 -0.546875 1.25q0 0.84375 0.65625 1.34375q0.65625 0.5 1.828125 0.5q1.125 0 1.9375 -0.515625q0.8125 -0.515625 1.171875 -1.484375l0.3125 0.921875q-0.375 0.96875 -1.3125 1.546875q-0.921875 0.578125 -2.3125 0.578125zm8.241577 -0.09375l0 -13.84375l1.328125 0l0 13.84375l-1.328125 0zm5.018524 0l0 -13.84375l1.328125 0l0 13.84375l-1.328125 0z" fill-rule="nonzero"/><path fill="#ffffff" d="m78.4343 305.81445l0 -13.84375l1.328125 0l0 13.84375l-1.328125 0zm5.0185394 0l0 -9.796875l1.328125 0l0 9.796875l-1.328125 0zm0.671875 -11.953125q-0.40625 0 -0.6875 -0.28125q-0.28125 -0.28125 -0.28125 -0.671875q0 -0.390625 0.28125 -0.65625q0.28125 -0.28125 0.6875 -0.28125q0.40625 0 0.6875 0.265625q0.28125 0.25 0.28125 0.65625q0 0.40625 -0.265625 0.6875q-0.265625 0.28125 -0.703125 0.28125zm9.409164 12.046875q-1.296875 0 -2.328125 -0.578125q-1.015625 -0.59375 -1.609375 -1.71875q-0.59375 -1.125 -0.59375 -2.703125q0 -1.609375 0.59375 -2.71875q0.609375 -1.109375 1.640625 -1.6875q1.03125 -0.578125 2.296875 -0.578125q1.390625 0 2.5 0.625q1.109375 0.625 1.75 1.75q0.640625 1.109375 0.640625 2.609375q0 1.46875 -0.640625 2.609375q-0.640625 1.125 -1.75 1.765625q-1.109375 0.625 -2.5 0.625zm-5.0625 -0.09375l0 -13.84375l1.328125 0l0 6.9375l-0.1875 1.984375l0.125 1.96875l0 2.953125l-1.265625 0zm4.96875 -1.078125q1.046875 0 1.859375 -0.46875q0.828125 -0.484375 1.3125 -1.34375q0.484375 -0.875 0.484375 -2.015625q0 -1.15625 -0.484375 -2.015625q-0.484375 -0.859375 -1.3125 -1.328125q-0.8125 -0.484375 -1.859375 -0.484375q-1.046875 0 -1.875 0.484375q-0.828125 0.46875 -1.3125 1.328125q-0.46875 0.859375 -0.46875 2.015625q0 1.140625 0.46875 2.015625q0.484375 0.859375 1.3125 1.34375q0.828125 0.46875 1.875 0.46875zm7.680191 1.078125l0 -9.796875l1.265625 0l0 2.671875l-0.125 -0.46875q0.40625 -1.125 1.375 -1.703125q0.96875 -0.59375 2.40625 -0.59375l0 1.296875q-0.0625 0 -0.140625 -0.015625q-0.078125 -0.015625 -0.15625 -0.015625q-1.546875 0 -2.421875 0.953125q-0.875 0.9375 -0.875 2.671875l0 5.0l-1.328125 0zm12.856445 0l0 -2.171875l-0.0625 -0.34375l0 -3.625q0 -1.25 -0.703125 -1.921875q-0.6875 -0.671875 -2.0625 -0.671875q-0.953125 0 -1.8125 0.328125q-0.859375 0.3125 -1.453125 0.828125l-0.609375 -0.984375q0.75 -0.640625 1.796875 -0.984375q1.046875 -0.34375 2.203125 -0.34375q1.90625 0 2.9375 0.953125q1.03125 0.9375 1.03125 2.859375l0 6.078125l-1.265625 0zm-3.375 0.09375q-1.109375 0 -1.921875 -0.359375q-0.796875 -0.375 -1.234375 -1.015625q-0.421875 -0.640625 -0.421875 -1.484375q0 -0.765625 0.359375 -1.390625q0.359375 -0.625 1.1875 -1.0q0.84375 -0.390625 2.234375 -0.390625l3.375 0l0 1.0l-3.34375 0q-1.40625 0 -1.96875 0.5q-0.546875 0.5 -0.546875 1.25q0 0.84375 0.65625 1.34375q0.65625 0.5 1.828125 0.5q1.125 0 1.9375 -0.515625q0.8125 -0.515625 1.171875 -1.484375l0.3125 0.921875q-0.375 0.96875 -1.3125 1.546875q-0.921875 0.578125 -2.3125 0.578125zm8.241562 -0.09375l0 -9.796875l1.265625 0l0 2.671875l-0.125 -0.46875q0.40625 -1.125 1.375 -1.703125q0.96875 -0.59375 2.40625 -0.59375l0 1.296875q-0.0625 0 -0.140625 -0.015625q-0.078125 -0.015625 -0.15625 -0.015625q-1.546875 0 -2.421875 0.953125q-0.875 0.9375 -0.875 2.671875l0 5.0l-1.328125 0zm7.3318176 0l0 -9.796875l1.328125 0l0 9.796875l-1.328125 0zm0.671875 -11.953125q-0.40625 0 -0.6875 -0.28125q-0.28125 -0.28125 -0.28125 -0.671875q0 -0.390625 0.28125 -0.65625q0.28125 -0.28125 0.6875 -0.28125q0.40625 0 0.6875 0.265625q0.28125 0.25 0.28125 0.65625q0 0.40625 -0.265625 0.6875q-0.265625 0.28125 -0.703125 0.28125zm8.502907 12.046875q-1.515625 0 -2.671875 -0.640625q-1.15625 -0.640625 -1.8125 -1.765625q-0.65625 -1.140625 -0.65625 -2.59375q0 -1.453125 0.625 -2.5625q0.625 -1.125 1.71875 -1.765625q1.09375 -0.65625 2.453125 -0.65625q1.375 0 2.4375 0.625q1.078125 0.625 1.6875 1.765625q0.625 1.125 0.625 2.59375q0 0.09375 -0.015625 0.203125q0 0.09375 0 0.203125l-8.53125 0l0 -0.984375l7.828125 0l-0.53125 0.390625q0 -1.0625 -0.453125 -1.890625q-0.453125 -0.828125 -1.25 -1.296875q-0.78125 -0.46875 -1.796875 -0.46875q-1.015625 0 -1.8125 0.46875q-0.796875 0.46875 -1.25 1.3125q-0.453125 0.828125 -0.453125 1.90625l0 0.21875q0 1.109375 0.5 1.96875q0.5 0.84375 1.375 1.328125q0.890625 0.46875 2.03125 0.46875q0.890625 0 1.65625 -0.3125q0.78125 -0.328125 1.34375 -0.984375l0.75 0.859375q-0.65625 0.78125 -1.640625 1.203125q-0.96875 0.40625 -2.15625 0.40625zm9.752747 0q-1.21875 0 -2.3125 -0.34375q-1.078125 -0.34375 -1.6875 -0.875l0.59375 -1.046875q0.59375 0.453125 1.53125 0.78125q0.9375 0.328125 1.96875 0.328125q1.390625 0 2.0 -0.4375q0.625 -0.4375 0.625 -1.171875q0 -0.53125 -0.34375 -0.84375q-0.34375 -0.3125 -0.90625 -0.46875q-0.5625 -0.15625 -1.25 -0.265625q-0.6875 -0.109375 -1.375 -0.265625q-0.671875 -0.15625 -1.234375 -0.4375q-0.5625 -0.296875 -0.90625 -0.796875q-0.34375 -0.5 -0.34375 -1.34375q0 -0.796875 0.4375 -1.421875q0.453125 -0.640625 1.3125 -1.0q0.875 -0.375 2.125 -0.375q0.953125 0 1.90625 0.25q0.953125 0.25 1.5625 0.671875l-0.578125 1.0625q-0.65625 -0.453125 -1.40625 -0.640625q-0.734375 -0.203125 -1.484375 -0.203125q-1.328125 0 -1.953125 0.46875q-0.625 0.453125 -0.625 1.15625q0 0.5625 0.34375 0.875q0.34375 0.3125 0.90625 0.5q0.578125 0.171875 1.25 0.28125q0.6875 0.109375 1.375 0.28125q0.6875 0.15625 1.25 0.421875q0.5625 0.265625 0.90625 0.765625q0.359375 0.5 0.359375 1.296875q0 0.859375 -0.484375 1.484375q-0.46875 0.625 -1.375 0.96875q-0.90625 0.34375 -2.1875 0.34375z" fill-rule="nonzero"/><path shape-rendering="crispEdges" fill="#9e9e9e" fill-opacity="0.0" d="m511.57077 141.32361l75.95804 0l0 51.194214l-75.95804 0l0 -51.194214z" fill-rule="nonzero"/><path shape-rendering="crispEdges" fill="#9e9e9e" fill-opacity="0.0" d="m587.5288 141.32361l82.944885 0l0 51.194214l-82.944885 0l0 -51.194214z" fill-rule="nonzero"/><path shape-rendering="crispEdges" fill="#9e9e9e" fill-opacity="0.0" d="m670.4737 141.32361l87.15222 0l0 51.194214l-87.15222 0l0 -51.194214z" fill-rule="nonzero"/><path shape-rendering="crispEdges" fill="#9e9e9e" fill-opacity="0.0" d="m757.6259 141.32361l81.54852 0l0 51.194214l-81.54852 0l0 -51.194214z" fill-rule="nonzero"/><path shape-rendering="crispEdges" fill="#9e9e9e" fill-opacity="0.0" d="m839.17444 141.32361l74.5932 0l0 51.194214l-74.5932 0l0 -51.194214z" fill-rule="nonzero"/><path shape-rendering="crispEdges" fill="#ffd966" d="m511.57077 192.51782l75.95804 0l0 54.685043l-75.95804 0l0 -54.685043z" fill-rule="nonzero"/><path shape-rendering="crispEdges" fill="#ffd966" d="m587.5288 192.51782l82.944885 0l0 54.685043l-82.944885 0l0 -54.685043z" fill-rule="nonzero"/><path shape-rendering="crispEdges" fill="#e06666" d="m670.4737 192.51782l87.15222 0l0 54.685043l-87.15222 0l0 -54.685043z" fill-rule="nonzero"/><path shape-rendering="crispEdges" fill="#e06666" d="m757.6259 192.51782l81.54852 0l0 54.685043l-81.54852 0l0 -54.685043z" fill-rule="nonzero"/><path shape-rendering="crispEdges" fill="#e06666" d="m839.17444 192.51782l74.5932 0l0 54.685043l-74.5932 0l0 -54.685043z" fill-rule="nonzero"/><path shape-rendering="crispEdges" fill="#ffd966" d="m511.57077 247.20287l75.95804 0l0 53.40944l-75.95804 0l0 -53.40944z" fill-rule="nonzero"/><path shape-rendering="crispEdges" fill="#ffd966" d="m587.5288 247.20287l82.944885 0l0 53.40944l-82.944885 0l0 -53.40944z" fill-rule="nonzero"/><path shape-rendering="crispEdges" fill="#ffd966" d="m670.4737 247.20287l87.15222 0l0 53.40944l-87.15222 0l0 -53.40944z" fill-rule="nonzero"/><path shape-rendering="crispEdges" fill="#e06666" d="m757.6259 247.20287l81.54852 0l0 53.40944l-81.54852 0l0 -53.40944z" fill-rule="nonzero"/><path shape-rendering="crispEdges" fill="#e06666" d="m839.17444 247.20287l74.5932 0l0 53.40944l-74.5932 0l0 -53.40944z" fill-rule="nonzero"/><path shape-rendering="crispEdges" fill="#93c47d" d="m511.57077 300.6123l75.95804 0l0 50.556427l-75.95804 0l0 -50.556427z" fill-rule="nonzero"/><path shape-rendering="crispEdges" fill="#ffd966" d="m587.5288 300.6123l82.944885 0l0 50.556427l-82.944885 0l0 -50.556427z" fill-rule="nonzero"/><path shape-rendering="crispEdges" fill="#ffd966" d="m670.4737 300.6123l87.15222 0l0 50.556427l-87.15222 0l0 -50.556427z" fill-rule="nonzero"/><path shape-rendering="crispEdges" fill="#ffd966" d="m757.6259 300.6123l81.54852 0l0 50.556427l-81.54852 0l0 -50.556427z" fill-rule="nonzero"/><path shape-rendering="crispEdges" fill="#e06666" d="m839.17444 300.6123l74.5932 0l0 50.556427l-74.5932 0l0 -50.556427z" fill-rule="nonzero"/><path shape-rendering="crispEdges" fill="#93c47d" d="m511.57077 351.16873l75.95804 0l0 49.2966l-75.95804 0l0 -49.2966z" fill-rule="nonzero"/><path shape-rendering="crispEdges" fill="#93c47d" d="m587.5288 351.16873l82.944885 0l0 49.2966l-82.944885 0l0 -49.2966z" fill-rule="nonzero"/><path shape-rendering="crispEdges" fill="#ffd966" d="m670.4737 351.16873l87.15222 0l0 49.2966l-87.15222 0l0 -49.2966z" fill-rule="nonzero"/><path shape-rendering="crispEdges" fill="#ffd966" d="m757.6259 351.16873l81.54852 0l0 49.2966l-81.54852 0l0 -49.2966z" fill-rule="nonzero"/><path shape-rendering="crispEdges" fill="#ffd966" d="m839.17444 351.16873l74.5932 0l0 49.2966l-74.5932 0l0 -49.2966z" fill-rule="nonzero"/><path shape-rendering="crispEdges" fill="#93c47d" d="m511.57077 400.46533l75.95804 0l0 49.19684l-75.95804 0l0 -49.19684z" fill-rule="nonzero"/><path shape-rendering="crispEdges" fill="#93c47d" d="m587.5288 400.46533l82.944885 0l0 49.19684l-82.944885 0l0 -49.19684z" fill-rule="nonzero"/><path shape-rendering="crispEdges" fill="#93c47d" d="m670.4737 400.46533l87.15222 0l0 49.19684l-87.15222 0l0 -49.19684z" fill-rule="nonzero"/><path shape-rendering="crispEdges" fill="#ffd966" d="m757.6259 400.46533l81.54852 0l0 49.19684l-81.54852 0l0 -49.19684z" fill-rule="nonzero"/><path shape-rendering="crispEdges" fill="#ffd966" d="m839.17444 400.46533l74.5932 0l0 49.19684l-74.5932 0l0 -49.19684z" fill-rule="nonzero"/><path stroke="#27173a" stroke-width="1.0" stroke-linecap="butt" d="m438.2086 192.01913l0 258.14172" fill-rule="nonzero"/><path stroke="#27173a" stroke-width="1.0" stroke-linecap="butt" d="m511.57077 192.01913l0 258.14172" fill-rule="nonzero"/><path stroke="#27173a" stroke-width="1.0" stroke-linecap="butt" d="m587.5288 192.01913l0 258.14172" fill-rule="nonzero"/><path stroke="#27173a" stroke-width="1.0" stroke-linecap="butt" d="m670.4737 192.01913l0 258.14172" fill-rule="nonzero"/><path stroke="#27173a" stroke-width="1.0" stroke-linecap="butt" d="m757.6259 192.01913l0 258.14172" fill-rule="nonzero"/><path stroke="#27173a" stroke-width="1.0" stroke-linecap="butt" d="m839.17444 192.01913l0 258.14172" fill-rule="nonzero"/><path stroke="#27173a" stroke-width="1.0" stroke-linecap="butt" d="m913.76764 192.01913l0 258.14172" fill-rule="nonzero"/><path stroke="#27173a" stroke-width="1.0" stroke-linecap="butt" d="m437.7099 247.20287l476.5564 0" fill-rule="nonzero"/><path stroke="#27173a" stroke-width="1.0" stroke-linecap="butt" d="m437.7099 300.6123l476.5564 0" fill-rule="nonzero"/><path stroke="#27173a" stroke-width="1.0" stroke-linecap="butt" d="m437.7099 351.16873l476.5564 0" fill-rule="nonzero"/><path stroke="#27173a" stroke-width="1.0" stroke-linecap="butt" d="m437.7099 400.46533l476.5564 0" fill-rule="nonzero"/><path stroke="#27173a" stroke-width="1.0" stroke-linecap="butt" d="m437.7099 449.66217l476.5564 0" fill-rule="nonzero"/><path fill="#ffffff" d="m525.88873 163.1236l-3.6875 -9.546875l1.359375 0l2.484375 6.9375q0.296875 0.828125 0.5 1.5625q0.21875 -0.78125 0.515625 -1.5625l2.578125 -6.9375l1.28125 0l-3.734375 9.546875l-1.296875 0zm10.013489 -2.21875l1.203125 0.140625q-0.28125 1.0625 -1.0625 1.65625q-0.765625 0.578125 -1.96875 0.578125q-1.515625 0 -2.40625 -0.9375q-0.890625 -0.9375 -0.890625 -2.609375q0 -1.75 0.890625 -2.703125q0.90625 -0.96875 2.34375 -0.96875q1.390625 0 2.265625 0.9375q0.875 0.9375 0.875 2.65625q0 0.109375 0 0.3125l-5.15625 0q0.0625 1.140625 0.640625 1.75q0.578125 0.59375 1.4375 0.59375q0.65625 0 1.109375 -0.328125q0.453125 -0.34375 0.71875 -1.078125zm-3.84375 -1.90625l3.859375 0q-0.078125 -0.859375 -0.4375 -1.296875q-0.5625 -0.6875 -1.453125 -0.6875q-0.8125 0 -1.359375 0.546875q-0.546875 0.53125 -0.609375 1.4375zm6.5062256 4.125l0 -6.90625l1.0625 0l0 1.046875q0.40625 -0.734375 0.734375 -0.96875q0.34375 -0.234375 0.765625 -0.234375q0.59375 0 1.203125 0.375l-0.40625 1.078125q-0.4375 -0.25 -0.859375 -0.25q-0.390625 0 -0.703125 0.234375q-0.296875 0.234375 -0.421875 0.640625q-0.203125 0.625 -0.203125 1.359375l0 3.625l-1.171875 0zm4.4071045 2.65625l-0.125 -1.09375q0.375 0.109375 0.65625 0.109375q0.390625 0 0.625 -0.140625q0.234375 -0.125 0.390625 -0.359375q0.109375 -0.171875 0.359375 -0.875q0.03125 -0.09375 0.109375 -0.28125l-2.625 -6.921875l1.265625 0l1.4375 4.0q0.28125 0.765625 0.5 1.59375q0.203125 -0.796875 0.46875 -1.578125l1.484375 -4.015625l1.171875 0l-2.625 7.015625q-0.421875 1.140625 -0.65625 1.578125q-0.3125 0.578125 -0.71875 0.84375q-0.40625 0.28125 -0.96875 0.28125q-0.328125 0 -0.75 -0.15625zm10.50769 -2.65625l0 -9.546875l1.265625 0l0 8.421875l4.703125 0l0 1.125l-5.96875 0zm6.8812256 -3.453125q0 -1.921875 1.078125 -2.84375q0.890625 -0.765625 2.171875 -0.765625q1.421875 0 2.328125 0.9375q0.90625 0.921875 0.90625 2.578125q0 1.328125 -0.40625 2.09375q-0.390625 0.765625 -1.15625 1.1875q-0.765625 0.421875 -1.671875 0.421875q-1.453125 0 -2.359375 -0.921875q-0.890625 -0.9375 -0.890625 -2.6875zm1.203125 0q0 1.328125 0.578125 1.984375q0.59375 0.65625 1.46875 0.65625q0.875 0 1.453125 -0.65625q0.578125 -0.671875 0.578125 -2.03125q0 -1.28125 -0.59375 -1.9375q-0.578125 -0.65625 -1.4375 -0.65625q-0.875 0 -1.46875 0.65625q-0.578125 0.65625 -0.578125 1.984375zm7.9281006 3.453125l-2.125 -6.90625l1.21875 0l1.09375 3.984375l0.421875 1.484375q0.015625 -0.109375 0.359375 -1.421875l1.09375 -4.046875l1.203125 0l1.03125 4.0l0.34375 1.328125l0.40625 -1.34375l1.171875 -3.984375l1.140625 0l-2.15625 6.90625l-1.21875 0l-1.09375 -4.140625l-0.265625 -1.171875l-1.40625 5.3125l-1.21875 0z" fill-rule="nonzero"/><path fill="#ffffff" d="m617.74493 163.1236l0 -9.546875l1.265625 0l0 8.421875l4.703125 0l0 1.125l-5.96875 0zm6.8812256 -3.453125q0 -1.921875 1.078125 -2.84375q0.890625 -0.765625 2.171875 -0.765625q1.421875 0 2.328125 0.9375q0.90625 0.921875 0.90625 2.578125q0 1.328125 -0.40625 2.09375q-0.390625 0.765625 -1.15625 1.1875q-0.765625 0.421875 -1.671875 0.421875q-1.453125 0 -2.359375 -0.921875q-0.890625 -0.9375 -0.890625 -2.6875zm1.203125 0q0 1.328125 0.578125 1.984375q0.59375 0.65625 1.46875 0.65625q0.875 0 1.453125 -0.65625q0.578125 -0.671875 0.578125 -2.03125q0 -1.28125 -0.59375 -1.9375q-0.578125 -0.65625 -1.4375 -0.65625q-0.875 0 -1.46875 0.65625q-0.578125 0.65625 -0.578125 1.984375zm7.9281006 3.453125l-2.125 -6.90625l1.21875 0l1.09375 3.984375l0.421875 1.484375q0.015625 -0.109375 0.359375 -1.421875l1.09375 -4.046875l1.203125 0l1.03125 4.0l0.34375 1.328125l0.40625 -1.34375l1.171875 -3.984375l1.140625 0l-2.15625 6.90625l-1.21875 0l-1.09375 -4.140625l-0.265625 -1.171875l-1.40625 5.3125l-1.21875 0z" fill-rule="nonzero"/><path fill="#ffffff" d="m691.33246 163.1236l0 -9.546875l1.90625 0l2.25 6.765625q0.3125 0.9375 0.46875 1.40625q0.15625 -0.515625 0.5 -1.53125l2.28125 -6.640625l1.703125 0l0 9.546875l-1.21875 0l0 -7.984375l-2.765625 7.984375l-1.140625 0l-2.765625 -8.125l0 8.125l-1.21875 0zm15.727417 -2.21875l1.203125 0.140625q-0.28125 1.0625 -1.0625 1.65625q-0.765625 0.578125 -1.96875 0.578125q-1.515625 0 -2.40625 -0.9375q-0.890625 -0.9375 -0.890625 -2.609375q0 -1.75 0.890625 -2.703125q0.90625 -0.96875 2.34375 -0.96875q1.390625 0 2.265625 0.9375q0.875 0.9375 0.875 2.65625q0 0.109375 0 0.3125l-5.15625 0q0.0625 1.140625 0.640625 1.75q0.578125 0.59375 1.4375 0.59375q0.65625 0 1.109375 -0.328125q0.453125 -0.34375 0.71875 -1.078125zm-3.84375 -1.90625l3.859375 0q-0.078125 -0.859375 -0.4375 -1.296875q-0.5625 -0.6875 -1.453125 -0.6875q-0.8125 0 -1.359375 0.546875q-0.546875 0.53125 -0.609375 1.4375zm11.006226 4.125l0 -0.875q-0.65625 1.03125 -1.9375 1.03125q-0.8125 0 -1.515625 -0.453125q-0.6875 -0.453125 -1.078125 -1.265625q-0.375 -0.828125 -0.375 -1.890625q0 -1.03125 0.34375 -1.875q0.34375 -0.84375 1.03125 -1.28125q0.703125 -0.453125 1.546875 -0.453125q0.625 0 1.109375 0.265625q0.5 0.25 0.796875 0.671875l0 -3.421875l1.171875 0l0 9.546875l-1.09375 0zm-3.703125 -3.453125q0 1.328125 0.5625 1.984375q0.5625 0.65625 1.328125 0.65625q0.765625 0 1.296875 -0.625q0.53125 -0.625 0.53125 -1.90625q0 -1.421875 -0.546875 -2.078125q-0.546875 -0.671875 -1.34375 -0.671875q-0.78125 0 -1.3125 0.640625q-0.515625 0.625 -0.515625 2.0zm6.6468506 -4.734375l0 -1.359375l1.171875 0l0 1.359375l-1.171875 0zm0 8.1875l0 -6.90625l1.171875 0l0 6.90625l-1.171875 0zm7.4767456 0l0 -1.015625q-0.8125 1.171875 -2.1875 1.171875q-0.609375 0 -1.140625 -0.234375q-0.53125 -0.234375 -0.796875 -0.578125q-0.25 -0.359375 -0.359375 -0.875q-0.0625 -0.34375 -0.0625 -1.09375l0 -4.28125l1.171875 0l0 3.828125q0 0.921875 0.0625 1.234375q0.109375 0.46875 0.46875 0.734375q0.359375 0.25 0.890625 0.25q0.515625 0 0.984375 -0.265625q0.46875 -0.265625 0.65625 -0.734375q0.1875 -0.46875 0.1875 -1.34375l0 -3.703125l1.171875 0l0 6.90625l-1.046875 0zm2.8812256 0l0 -6.90625l1.046875 0l0 0.96875q0.328125 -0.515625 0.859375 -0.8125q0.546875 -0.3125 1.234375 -0.3125q0.78125 0 1.265625 0.3125q0.484375 0.3125 0.6875 0.890625q0.828125 -1.203125 2.140625 -1.203125q1.03125 0 1.578125 0.578125q0.5625 0.5625 0.5625 1.734375l0 4.75l-1.171875 0l0 -4.359375q0 -0.703125 -0.125 -1.0q-0.109375 -0.3125 -0.40625 -0.5q-0.296875 -0.1875 -0.703125 -0.1875q-0.71875 0 -1.203125 0.484375q-0.484375 0.484375 -0.484375 1.546875l0 4.015625l-1.171875 0l0 -4.484375q0 -0.78125 -0.296875 -1.171875q-0.28125 -0.390625 -0.921875 -0.390625q-0.5 0 -0.921875 0.265625q-0.421875 0.25 -0.609375 0.75q-0.1875 0.5 -0.1875 1.453125l0 3.578125l-1.171875 0z" fill-rule="nonzero"/><path fill="#ffffff" d="m785.7571 163.1236l0 -9.546875l1.265625 0l0 3.921875l4.953125 0l0 -3.921875l1.265625 0l0 9.546875l-1.265625 0l0 -4.5l-4.953125 0l0 4.5l-1.265625 0zm9.453247 -8.1875l0 -1.359375l1.171875 0l0 1.359375l-1.171875 0zm0 8.1875l0 -6.90625l1.171875 0l0 6.90625l-1.171875 0zm2.7267456 0.578125l1.140625 0.15625q0.078125 0.53125 0.40625 0.78125q0.4375 0.3125 1.1875 0.3125q0.8125 0 1.25 -0.328125q0.453125 -0.3125 0.609375 -0.90625q0.09375 -0.359375 0.078125 -1.5q-0.765625 0.90625 -1.90625 0.90625q-1.4375 0 -2.21875 -1.03125q-0.78125 -1.03125 -0.78125 -2.46875q0 -0.984375 0.359375 -1.8125q0.359375 -0.84375 1.03125 -1.296875q0.6875 -0.453125 1.609375 -0.453125q1.21875 0 2.015625 0.984375l0 -0.828125l1.078125 0l0 5.96875q0 1.609375 -0.328125 2.28125q-0.328125 0.6875 -1.046875 1.078125q-0.703125 0.390625 -1.75 0.390625q-1.234375 0 -2.0 -0.5625q-0.75 -0.5625 -0.734375 -1.671875zm0.984375 -4.15625q0 1.359375 0.53125 1.984375q0.546875 0.625 1.359375 0.625q0.796875 0 1.34375 -0.625q0.546875 -0.625 0.546875 -1.953125q0 -1.265625 -0.5625 -1.90625q-0.5625 -0.640625 -1.359375 -0.640625q-0.765625 0 -1.3125 0.640625q-0.546875 0.625 -0.546875 1.875zm6.6468506 3.578125l0 -9.546875l1.171875 0l0 3.421875q0.828125 -0.9375 2.078125 -0.9375q0.765625 0 1.328125 0.296875q0.5625 0.296875 0.8125 0.84375q0.25 0.53125 0.25 1.546875l0 4.375l-1.171875 0l0 -4.375q0 -0.890625 -0.390625 -1.28125q-0.375 -0.40625 -1.078125 -0.40625q-0.515625 0 -0.984375 0.28125q-0.453125 0.265625 -0.65625 0.734375q-0.1875 0.453125 -0.1875 1.265625l0 3.78125l-1.171875 0z" fill-rule="nonzero"/><path fill="#ffffff" d="m866.88654 163.1236l-3.6875 -9.546875l1.359375 0l2.484375 6.9375q0.296875 0.828125 0.5 1.5625q0.21875 -0.78125 0.515625 -1.5625l2.578125 -6.9375l1.28125 0l-3.734375 9.546875l-1.296875 0zm10.013489 -2.21875l1.203125 0.140625q-0.28125 1.0625 -1.0625 1.65625q-0.765625 0.578125 -1.96875 0.578125q-1.515625 0 -2.40625 -0.9375q-0.890625 -0.9375 -0.890625 -2.609375q0 -1.75 0.890625 -2.703125q0.90625 -0.96875 2.34375 -0.96875q1.390625 0 2.265625 0.9375q0.875 0.9375 0.875 2.65625q0 0.109375 0 0.3125l-5.15625 0q0.0625 1.140625 0.640625 1.75q0.578125 0.59375 1.4375 0.59375q0.65625 0 1.109375 -0.328125q0.453125 -0.34375 0.71875 -1.078125zm-3.84375 -1.90625l3.859375 0q-0.078125 -0.859375 -0.4375 -1.296875q-0.5625 -0.6875 -1.453125 -0.6875q-0.8125 0 -1.359375 0.546875q-0.546875 0.53125 -0.609375 1.4375zm6.5062256 4.125l0 -6.90625l1.0625 0l0 1.046875q0.40625 -0.734375 0.734375 -0.96875q0.34375 -0.234375 0.765625 -0.234375q0.59375 0 1.203125 0.375l-0.40625 1.078125q-0.4375 -0.25 -0.859375 -0.25q-0.390625 0 -0.703125 0.234375q-0.296875 0.234375 -0.421875 0.640625q-0.203125 0.625 -0.203125 1.359375l0 3.625l-1.171875 0zm4.4071045 2.65625l-0.125 -1.09375q0.375 0.109375 0.65625 0.109375q0.390625 0 0.625 -0.140625q0.234375 -0.125 0.390625 -0.359375q0.109375 -0.171875 0.359375 -0.875q0.03125 -0.09375 0.109375 -0.28125l-2.625 -6.921875l1.265625 0l1.4375 4.0q0.28125 0.765625 0.5 1.59375q0.203125 -0.796875 0.46875 -1.578125l1.484375 -4.015625l1.171875 0l-2.625 7.015625q-0.421875 1.140625 -0.65625 1.578125q-0.3125 0.578125 -0.71875 0.84375q-0.40625 0.28125 -0.96875 0.28125q-0.328125 0 -0.75 -0.15625z" fill-rule="nonzero"/><path fill="#ffffff" d="m863.82794 179.1236l0 -9.546875l1.265625 0l0 3.921875l4.953125 0l0 -3.921875l1.265625 0l0 9.546875l-1.265625 0l0 -4.5l-4.953125 0l0 4.5l-1.265625 0zm9.453247 -8.1875l0 -1.359375l1.171875 0l0 1.359375l-1.171875 0zm0 8.1875l0 -6.90625l1.171875 0l0 6.90625l-1.171875 0zm2.7267456 0.578125l1.140625 0.15625q0.078125 0.53125 0.40625 0.78125q0.4375 0.3125 1.1875 0.3125q0.8125 0 1.25 -0.328125q0.453125 -0.3125 0.609375 -0.90625q0.09375 -0.359375 0.078125 -1.5q-0.765625 0.90625 -1.90625 0.90625q-1.4375 0 -2.21875 -1.03125q-0.78125 -1.03125 -0.78125 -2.46875q0 -0.984375 0.359375 -1.8125q0.359375 -0.84375 1.03125 -1.296875q0.6875 -0.453125 1.609375 -0.453125q1.21875 0 2.015625 0.984375l0 -0.828125l1.078125 0l0 5.96875q0 1.609375 -0.328125 2.28125q-0.328125 0.6875 -1.046875 1.078125q-0.703125 0.390625 -1.75 0.390625q-1.234375 0 -2.0 -0.5625q-0.75 -0.5625 -0.734375 -1.671875zm0.984375 -4.15625q0 1.359375 0.53125 1.984375q0.546875 0.625 1.359375 0.625q0.796875 0 1.34375 -0.625q0.546875 -0.625 0.546875 -1.953125q0 -1.265625 -0.5625 -1.90625q-0.5625 -0.640625 -1.359375 -0.640625q-0.765625 0 -1.3125 0.640625q-0.546875 0.625 -0.546875 1.875zm6.6468506 3.578125l0 -9.546875l1.171875 0l0 3.421875q0.828125 -0.9375 2.078125 -0.9375q0.765625 0 1.328125 0.296875q0.5625 0.296875 0.8125 0.84375q0.25 0.53125 0.25 1.546875l0 4.375l-1.171875 0l0 -4.375q0 -0.890625 -0.390625 -1.28125q-0.375 -0.40625 -1.078125 -0.40625q-0.515625 0 -0.984375 0.28125q-0.453125 0.265625 -0.65625 0.734375q-0.1875 0.453125 -0.1875 1.265625l0 3.78125l-1.171875 0z" fill-rule="nonzero"/><path fill="#ffffff" d="m465.30518 214.31783l-3.6875 -9.546875l1.359375 0l2.484375 6.9375q0.296875 0.828125 0.5 1.5625q0.21875 -0.78125 0.515625 -1.5625l2.578125 -6.9375l1.28125 0l-3.734375 9.546875l-1.296875 0zm10.013458 -2.21875l1.203125 0.140625q-0.28125 1.0625 -1.0625 1.65625q-0.765625 0.578125 -1.96875 0.578125q-1.515625 0 -2.40625 -0.9375q-0.890625 -0.9375 -0.890625 -2.609375q0 -1.75 0.890625 -2.703125q0.90625 -0.96875 2.34375 -0.96875q1.390625 0 2.265625 0.9375q0.875 0.9375 0.875 2.65625q0 0.109375 0 0.3125l-5.15625 0q0.0625 1.140625 0.640625 1.75q0.578125 0.59375 1.4375 0.59375q0.65625 0 1.109375 -0.328125q0.453125 -0.34375 0.71875 -1.078125zm-3.84375 -1.90625l3.859375 0q-0.078125 -0.859375 -0.4375 -1.296875q-0.5625 -0.6875 -1.453125 -0.6875q-0.8125 0 -1.359375 0.546875q-0.546875 0.53125 -0.609375 1.4375zm6.5062256 4.125l0 -6.90625l1.0625 0l0 1.046875q0.40625 -0.734375 0.734375 -0.96875q0.34375 -0.234375 0.765625 -0.234375q0.59375 0 1.203125 0.375l-0.40625 1.078125q-0.4375 -0.25 -0.859375 -0.25q-0.390625 0 -0.703125 0.234375q-0.296875 0.234375 -0.421875 0.640625q-0.203125 0.625 -0.203125 1.359375l0 3.625l-1.171875 0zm4.407135 2.65625l-0.125 -1.09375q0.375 0.109375 0.65625 0.109375q0.390625 0 0.625 -0.140625q0.234375 -0.125 0.390625 -0.359375q0.109375 -0.171875 0.359375 -0.875q0.03125 -0.09375 0.109375 -0.28125l-2.625 -6.921875l1.265625 0l1.4375 4.0q0.28125 0.765625 0.5 1.59375q0.203125 -0.796875 0.46875 -1.578125l1.484375 -4.015625l1.171875 0l-2.625 7.015625q-0.421875 1.140625 -0.65625 1.578125q-0.3125 0.578125 -0.71875 0.84375q-0.40625 0.28125 -0.96875 0.28125q-0.328125 0 -0.75 -0.15625z" fill-rule="nonzero"/><path fill="#ffffff" d="m462.24658 230.31783l0 -9.546875l1.265625 0l0 3.921875l4.953125 0l0 -3.921875l1.265625 0l0 9.546875l-1.265625 0l0 -4.5l-4.953125 0l0 4.5l-1.265625 0zm9.453278 -8.1875l0 -1.359375l1.171875 0l0 1.359375l-1.171875 0zm0 8.1875l0 -6.90625l1.171875 0l0 6.90625l-1.171875 0zm2.726715 0.578125l1.140625 0.15625q0.078125 0.53125 0.40625 0.78125q0.4375 0.3125 1.1875 0.3125q0.8125 0 1.25 -0.328125q0.453125 -0.3125 0.609375 -0.90625q0.09375 -0.359375 0.078125 -1.5q-0.765625 0.90625 -1.90625 0.90625q-1.4375 0 -2.21875 -1.03125q-0.78125 -1.03125 -0.78125 -2.46875q0 -0.984375 0.359375 -1.8125q0.359375 -0.84375 1.03125 -1.296875q0.6875 -0.453125 1.609375 -0.453125q1.21875 0 2.015625 0.984375l0 -0.828125l1.078125 0l0 5.96875q0 1.609375 -0.328125 2.28125q-0.328125 0.6875 -1.046875 1.078125q-0.703125 0.390625 -1.75 0.390625q-1.234375 0 -2.0 -0.5625q-0.75 -0.5625 -0.734375 -1.671875zm0.984375 -4.15625q0 1.359375 0.53125 1.984375q0.546875 0.625 1.359375 0.625q0.796875 0 1.34375 -0.625q0.546875 -0.625 0.546875 -1.953125q0 -1.265625 -0.5625 -1.90625q-0.5625 -0.640625 -1.359375 -0.640625q-0.765625 0 -1.3125 0.640625q-0.546875 0.625 -0.546875 1.875zm6.6468506 3.578125l0 -9.546875l1.171875 0l0 3.421875q0.828125 -0.9375 2.078125 -0.9375q0.765625 0 1.328125 0.296875q0.5625 0.296875 0.8125 0.84375q0.25 0.53125 0.25 1.546875l0 4.375l-1.171875 0l0 -4.375q0 -0.890625 -0.390625 -1.28125q-0.375 -0.40625 -1.078125 -0.40625q-0.515625 0 -0.984375 0.28125q-0.453125 0.265625 -0.65625 0.734375q-0.1875 0.453125 -0.1875 1.265625l0 3.78125l-1.171875 0z" fill-rule="nonzero"/><path fill="#000000" d="m866.01544 219.43782l0 -13.359375l5.921875 0q1.78125 0 2.703125 0.359375q0.9375 0.359375 1.484375 1.28125q0.5625 0.90625 0.5625 2.015625q0 1.40625 -0.921875 2.390625q-0.921875 0.96875 -2.84375 1.234375q0.703125 0.34375 1.078125 0.671875q0.765625 0.703125 1.453125 1.765625l2.328125 3.640625l-2.21875 0l-1.765625 -2.78125q-0.78125 -1.203125 -1.28125 -1.828125q-0.5 -0.640625 -0.90625 -0.890625q-0.390625 -0.265625 -0.796875 -0.359375q-0.296875 -0.078125 -0.984375 -0.078125l-2.046875 0l0 5.9375l-1.765625 0zm1.765625 -7.453125l3.796875 0q1.21875 0 1.890625 -0.25q0.6875 -0.265625 1.046875 -0.8125q0.359375 -0.546875 0.359375 -1.1875q0 -0.953125 -0.6875 -1.5625q-0.6875 -0.609375 -2.1875 -0.609375l-4.21875 0l0 4.421875zm17.191711 7.453125l-1.640625 0l0 -10.453125q-0.59375 0.5625 -1.5625 1.140625q-0.953125 0.5625 -1.71875 0.84375l0 -1.59375q1.375 -0.640625 2.40625 -1.5625q1.03125 -0.921875 1.453125 -1.78125l1.0625 0l0 13.40625z" fill-rule="nonzero"/><path fill="#ffffff" d="m462.24658 269.00287l0 -9.546875l1.265625 0l0 3.921875l4.953125 0l0 -3.921875l1.265625 0l0 9.546875l-1.265625 0l0 -4.5l-4.953125 0l0 4.5l-1.265625 0zm9.453278 -8.1875l0 -1.359375l1.171875 0l0 1.359375l-1.171875 0zm0 8.1875l0 -6.90625l1.171875 0l0 6.90625l-1.171875 0zm2.726715 0.578125l1.140625 0.15625q0.078125 0.53125 0.40625 0.78125q0.4375 0.3125 1.1875 0.3125q0.8125 0 1.25 -0.328125q0.453125 -0.3125 0.609375 -0.90625q0.09375 -0.359375 0.078125 -1.5q-0.765625 0.90625 -1.90625 0.90625q-1.4375 0 -2.21875 -1.03125q-0.78125 -1.03125 -0.78125 -2.46875q0 -0.984375 0.359375 -1.8125q0.359375 -0.84375 1.03125 -1.296875q0.6875 -0.453125 1.609375 -0.453125q1.21875 0 2.015625 0.984375l0 -0.828125l1.078125 0l0 5.96875q0 1.609375 -0.328125 2.28125q-0.328125 0.6875 -1.046875 1.078125q-0.703125 0.390625 -1.75 0.390625q-1.234375 0 -2.0 -0.5625q-0.75 -0.5625 -0.734375 -1.671875zm0.984375 -4.15625q0 1.359375 0.53125 1.984375q0.546875 0.625 1.359375 0.625q0.796875 0 1.34375 -0.625q0.546875 -0.625 0.546875 -1.953125q0 -1.265625 -0.5625 -1.90625q-0.5625 -0.640625 -1.359375 -0.640625q-0.765625 0 -1.3125 0.640625q-0.546875 0.625 -0.546875 1.875zm6.6468506 3.578125l0 -9.546875l1.171875 0l0 3.421875q0.828125 -0.9375 2.078125 -0.9375q0.765625 0 1.328125 0.296875q0.5625 0.296875 0.8125 0.84375q0.25 0.53125 0.25 1.546875l0 4.375l-1.171875 0l0 -4.375q0 -0.890625 -0.390625 -1.28125q-0.375 -0.40625 -1.078125 -0.40625q-0.515625 0 -0.984375 0.28125q-0.453125 0.265625 -0.65625 0.734375q-0.1875 0.453125 -0.1875 1.265625l0 3.78125l-1.171875 0z" fill-rule="nonzero"/><path fill="#ffffff" d="m452.17236 322.41232l0 -9.546875l1.90625 0l2.25 6.765625q0.3125 0.9375 0.46875 1.40625q0.15625 -0.515625 0.5 -1.53125l2.28125 -6.640625l1.703125 0l0 9.546875l-1.21875 0l0 -7.984375l-2.765625 7.984375l-1.140625 0l-2.765625 -8.125l0 8.125l-1.21875 0zm15.727417 -2.21875l1.203125 0.140625q-0.28125 1.0625 -1.0625 1.65625q-0.765625 0.578125 -1.96875 0.578125q-1.515625 0 -2.40625 -0.9375q-0.890625 -0.9375 -0.890625 -2.609375q0 -1.75 0.890625 -2.703125q0.90625 -0.96875 2.34375 -0.96875q1.390625 0 2.265625 0.9375q0.875 0.9375 0.875 2.65625q0 0.109375 0 0.3125l-5.15625 0q0.0625 1.140625 0.640625 1.75q0.578125 0.59375 1.4375 0.59375q0.65625 0 1.109375 -0.328125q0.453125 -0.34375 0.71875 -1.078125zm-3.84375 -1.90625l3.859375 0q-0.078125 -0.859375 -0.4375 -1.296875q-0.5625 -0.6875 -1.453125 -0.6875q-0.8125 0 -1.359375 0.546875q-0.546875 0.53125 -0.609375 1.4375zm11.006226 4.125l0 -0.875q-0.65625 1.03125 -1.9375 1.03125q-0.8125 0 -1.515625 -0.453125q-0.6875 -0.453125 -1.078125 -1.265625q-0.375 -0.828125 -0.375 -1.890625q0 -1.03125 0.34375 -1.875q0.34375 -0.84375 1.03125 -1.28125q0.703125 -0.453125 1.546875 -0.453125q0.625 0 1.109375 0.265625q0.5 0.25 0.796875 0.671875l0 -3.421875l1.171875 0l0 9.546875l-1.09375 0zm-3.703125 -3.453125q0 1.328125 0.5625 1.984375q0.5625 0.65625 1.328125 0.65625q0.765625 0 1.296875 -0.625q0.53125 -0.625 0.53125 -1.90625q0 -1.421875 -0.546875 -2.078125q-0.546875 -0.671875 -1.34375 -0.671875q-0.78125 0 -1.3125 0.640625q-0.515625 0.625 -0.515625 2.0zm6.6468506 -4.734375l0 -1.359375l1.171875 0l0 1.359375l-1.171875 0zm0 8.1875l0 -6.90625l1.171875 0l0 6.90625l-1.171875 0zm7.476715 0l0 -1.015625q-0.8125 1.171875 -2.1875 1.171875q-0.609375 0 -1.140625 -0.234375q-0.53125 -0.234375 -0.796875 -0.578125q-0.25 -0.359375 -0.359375 -0.875q-0.0625 -0.34375 -0.0625 -1.09375l0 -4.28125l1.171875 0l0 3.828125q0 0.921875 0.0625 1.234375q0.109375 0.46875 0.46875 0.734375q0.359375 0.25 0.890625 0.25q0.515625 0 0.984375 -0.265625q0.46875 -0.265625 0.65625 -0.734375q0.1875 -0.46875 0.1875 -1.34375l0 -3.703125l1.171875 0l0 6.90625l-1.046875 0zm2.8812256 0l0 -6.90625l1.046875 0l0 0.96875q0.328125 -0.515625 0.859375 -0.8125q0.546875 -0.3125 1.234375 -0.3125q0.78125 0 1.265625 0.3125q0.484375 0.3125 0.6875 0.890625q0.828125 -1.203125 2.140625 -1.203125q1.03125 0 1.578125 0.578125q0.5625 0.5625 0.5625 1.734375l0 4.75l-1.171875 0l0 -4.359375q0 -0.703125 -0.125 -1.0q-0.109375 -0.3125 -0.40625 -0.5q-0.296875 -0.1875 -0.703125 -0.1875q-0.71875 0 -1.203125 0.484375q-0.484375 0.484375 -0.484375 1.546875l0 4.015625l-1.171875 0l0 -4.484375q0 -0.78125 -0.296875 -1.171875q-0.28125 -0.390625 -0.921875 -0.390625q-0.5 0 -0.921875 0.265625q-0.421875 0.25 -0.609375 0.75q-0.1875 0.5 -0.1875 1.453125l0 3.578125l-1.171875 0z" fill-rule="nonzero"/><path fill="#000000" d="m787.9446 327.53232l0 -13.359375l5.921875 0q1.78125 0 2.703125 0.359375q0.9375 0.359375 1.484375 1.28125q0.5625 0.90625 0.5625 2.015625q0 1.40625 -0.921875 2.390625q-0.921875 0.96875 -2.84375 1.234375q0.703125 0.34375 1.078125 0.671875q0.765625 0.703125 1.453125 1.765625l2.328125 3.640625l-2.21875 0l-1.765625 -2.78125q-0.78125 -1.203125 -1.28125 -1.828125q-0.5 -0.640625 -0.90625 -0.890625q-0.390625 -0.265625 -0.796875 -0.359375q-0.296875 -0.078125 -0.984375 -0.078125l-2.046875 0l0 5.9375l-1.765625 0zm1.765625 -7.453125l3.796875 0q1.21875 0 1.890625 -0.25q0.6875 -0.265625 1.046875 -0.8125q0.359375 -0.546875 0.359375 -1.1875q0 -0.953125 -0.6875 -1.5625q-0.6875 -0.609375 -2.1875 -0.609375l-4.21875 0l0 4.421875zm11.019836 3.921875l1.640625 -0.21875q0.28125 1.40625 0.953125 2.015625q0.6875 0.609375 1.65625 0.609375q1.15625 0 1.953125 -0.796875q0.796875 -0.796875 0.796875 -1.984375q0 -1.125 -0.734375 -1.859375q-0.734375 -0.734375 -1.875 -0.734375q-0.46875 0 -1.15625 0.171875l0.1875 -1.4375q0.15625 0.015625 0.265625 0.015625q1.046875 0 1.875 -0.546875q0.84375 -0.546875 0.84375 -1.671875q0 -0.90625 -0.609375 -1.5q-0.609375 -0.59375 -1.578125 -0.59375q-0.953125 0 -1.59375 0.609375q-0.640625 0.59375 -0.8125 1.796875l-1.640625 -0.296875q0.296875 -1.640625 1.359375 -2.546875q1.0625 -0.90625 2.65625 -0.90625q1.09375 0 2.0 0.46875q0.921875 0.46875 1.40625 1.28125q0.5 0.8125 0.5 1.71875q0 0.859375 -0.46875 1.578125q-0.46875 0.703125 -1.375 1.125q1.1875 0.28125 1.84375 1.140625q0.65625 0.859375 0.65625 2.15625q0 1.734375 -1.28125 2.953125q-1.265625 1.21875 -3.21875 1.21875q-1.765625 0 -2.921875 -1.046875q-1.15625 -1.046875 -1.328125 -2.71875z" fill-rule="nonzero"/><path fill="#ffffff" d="m463.63336 372.96875l0 -9.546875l1.265625 0l0 8.421875l4.703125 0l0 1.125l-5.96875 0zm6.8812256 -3.453125q0 -1.921875 1.078125 -2.84375q0.890625 -0.765625 2.171875 -0.765625q1.421875 0 2.328125 0.9375q0.90625 0.921875 0.90625 2.578125q0 1.328125 -0.40625 2.09375q-0.390625 0.765625 -1.15625 1.1875q-0.765625 0.421875 -1.671875 0.421875q-1.453125 0 -2.359375 -0.921875q-0.890625 -0.9375 -0.890625 -2.6875zm1.203125 0q0 1.328125 0.578125 1.984375q0.59375 0.65625 1.46875 0.65625q0.875 0 1.453125 -0.65625q0.578125 -0.671875 0.578125 -2.03125q0 -1.28125 -0.59375 -1.9375q-0.578125 -0.65625 -1.4375 -0.65625q-0.875 0 -1.46875 0.65625q-0.578125 0.65625 -0.578125 1.984375zm7.9281006 3.453125l-2.125 -6.90625l1.21875 0l1.09375 3.984375l0.421875 1.484375q0.015625 -0.109375 0.359375 -1.421875l1.09375 -4.046875l1.203125 0l1.03125 4.0l0.34375 1.328125l0.40625 -1.34375l1.171875 -3.984375l1.140625 0l-2.15625 6.90625l-1.21875 0l-1.09375 -4.140625l-0.265625 -1.171875l-1.40625 5.3125l-1.21875 0z" fill-rule="nonzero"/><path fill="#000000" d="m617.4336 378.08875l0 -13.359375l2.65625 0l3.15625 9.453125q0.4375 1.328125 0.640625 1.984375q0.234375 -0.734375 0.703125 -2.140625l3.203125 -9.296875l2.375 0l0 13.359375l-1.703125 0l0 -11.171875l-3.875 11.171875l-1.59375 0l-3.859375 -11.375l0 11.375l-1.703125 0zm23.540771 -1.578125l0 1.578125l-8.828125 0q-0.015625 -0.59375 0.1875 -1.140625q0.34375 -0.90625 1.078125 -1.78125q0.75 -0.875 2.15625 -2.015625q2.171875 -1.78125 2.9375 -2.828125q0.765625 -1.046875 0.765625 -1.96875q0 -0.984375 -0.703125 -1.640625q-0.6875 -0.671875 -1.8125 -0.671875q-1.1875 0 -1.90625 0.71875q-0.703125 0.703125 -0.703125 1.953125l-1.6875 -0.171875q0.171875 -1.890625 1.296875 -2.875q1.140625 -0.984375 3.03125 -0.984375q1.921875 0 3.046875 1.0625q1.125 1.0625 1.125 2.640625q0 0.796875 -0.328125 1.578125q-0.328125 0.78125 -1.09375 1.640625q-0.75 0.84375 -2.53125 2.34375q-1.46875 1.234375 -1.890625 1.6875q-0.421875 0.4375 -0.6875 0.875l6.546875 0z" fill-rule="nonzero"/><path fill="#000000" d="m787.9446 378.08875l0 -13.359375l5.921875 0q1.78125 0 2.703125 0.359375q0.9375 0.359375 1.484375 1.28125q0.5625 0.90625 0.5625 2.015625q0 1.40625 -0.921875 2.390625q-0.921875 0.96875 -2.84375 1.234375q0.703125 0.34375 1.078125 0.671875q0.765625 0.703125 1.453125 1.765625l2.328125 3.640625l-2.21875 0l-1.765625 -2.78125q-0.78125 -1.203125 -1.28125 -1.828125q-0.5 -0.640625 -0.90625 -0.890625q-0.390625 -0.265625 -0.796875 -0.359375q-0.296875 -0.078125 -0.984375 -0.078125l-2.046875 0l0 5.9375l-1.765625 0zm1.765625 -7.453125l3.796875 0q1.21875 0 1.890625 -0.25q0.6875 -0.265625 1.046875 -0.8125q0.359375 -0.546875 0.359375 -1.1875q0 -0.953125 -0.6875 -1.5625q-0.6875 -0.609375 -2.1875 -0.609375l-4.21875 0l0 4.421875zm19.629211 5.875l0 1.578125l-8.828125 0q-0.015625 -0.59375 0.1875 -1.140625q0.34375 -0.90625 1.078125 -1.78125q0.75 -0.875 2.15625 -2.015625q2.171875 -1.78125 2.9375 -2.828125q0.765625 -1.046875 0.765625 -1.96875q0 -0.984375 -0.703125 -1.640625q-0.6875 -0.671875 -1.8125 -0.671875q-1.1875 0 -1.90625 0.71875q-0.703125 0.703125 -0.703125 1.953125l-1.6875 -0.171875q0.171875 -1.890625 1.296875 -2.875q1.140625 -0.984375 3.03125 -0.984375q1.921875 0 3.046875 1.0625q1.125 1.0625 1.125 2.640625q0 0.796875 -0.328125 1.578125q-0.328125 0.78125 -1.09375 1.640625q-0.75 0.84375 -2.53125 2.34375q-1.46875 1.234375 -1.890625 1.6875q-0.421875 0.4375 -0.6875 0.875l6.546875 0z" fill-rule="nonzero"/><path fill="#ffffff" d="m453.08014 422.26532l-3.6875 -9.546875l1.359375 0l2.484375 6.9375q0.296875 0.828125 0.5 1.5625q0.21875 -0.78125 0.515625 -1.5625l2.578125 -6.9375l1.28125 0l-3.734375 9.546875l-1.296875 0zm10.013458 -2.21875l1.203125 0.140625q-0.28125 1.0625 -1.0625 1.65625q-0.765625 0.578125 -1.96875 0.578125q-1.515625 0 -2.40625 -0.9375q-0.890625 -0.9375 -0.890625 -2.609375q0 -1.75 0.890625 -2.703125q0.90625 -0.96875 2.34375 -0.96875q1.390625 0 2.265625 0.9375q0.875 0.9375 0.875 2.65625q0 0.109375 0 0.3125l-5.15625 0q0.0625 1.140625 0.640625 1.75q0.578125 0.59375 1.4375 0.59375q0.65625 0 1.109375 -0.328125q0.453125 -0.34375 0.71875 -1.078125zm-3.84375 -1.90625l3.859375 0q-0.078125 -0.859375 -0.4375 -1.296875q-0.5625 -0.6875 -1.453125 -0.6875q-0.8125 0 -1.359375 0.546875q-0.546875 0.53125 -0.609375 1.4375zm6.5062256 4.125l0 -6.90625l1.0625 0l0 1.046875q0.40625 -0.734375 0.734375 -0.96875q0.34375 -0.234375 0.765625 -0.234375q0.59375 0 1.203125 0.375l-0.40625 1.078125q-0.4375 -0.25 -0.859375 -0.25q-0.390625 0 -0.703125 0.234375q-0.296875 0.234375 -0.421875 0.640625q-0.203125 0.625 -0.203125 1.359375l0 3.625l-1.171875 0zm4.4071045 2.65625l-0.125 -1.09375q0.375 0.109375 0.65625 0.109375q0.390625 0 0.625 -0.140625q0.234375 -0.125 0.390625 -0.359375q0.109375 -0.171875 0.359375 -0.875q0.03125 -0.09375 0.109375 -0.28125l-2.625 -6.921875l1.265625 0l1.4375 4.0q0.28125 0.765625 0.5 1.59375q0.203125 -0.796875 0.46875 -1.578125l1.484375 -4.015625l1.171875 0l-2.625 7.015625q-0.421875 1.140625 -0.65625 1.578125q-0.3125 0.578125 -0.71875 0.84375q-0.40625 0.28125 -0.96875 0.28125q-0.328125 0 -0.75 -0.15625z" fill-rule="nonzero"/><path fill="#ffffff" d="m480.67087 422.26532l0 -9.546875l1.265625 0l0 8.421875l4.703125 0l0 1.125l-5.96875 0zm6.8812256 -3.453125q0 -1.921875 1.078125 -2.84375q0.890625 -0.765625 2.171875 -0.765625q1.421875 0 2.328125 0.9375q0.90625 0.921875 0.90625 2.578125q0 1.328125 -0.40625 2.09375q-0.390625 0.765625 -1.15625 1.1875q-0.765625 0.421875 -1.671875 0.421875q-1.453125 0 -2.359375 -0.921875q-0.890625 -0.9375 -0.890625 -2.6875zm1.203125 0q0 1.328125 0.578125 1.984375q0.59375 0.65625 1.46875 0.65625q0.875 0 1.453125 -0.65625q0.578125 -0.671875 0.578125 -2.03125q0 -1.28125 -0.59375 -1.9375q-0.578125 -0.65625 -1.4375 -0.65625q-0.875 0 -1.46875 0.65625q-0.578125 0.65625 -0.578125 1.984375zm7.9281006 3.453125l-2.125 -6.90625l1.21875 0l1.09375 3.984375l0.421875 1.484375q0.015625 -0.109375 0.359375 -1.421875l1.09375 -4.046875l1.203125 0l1.03125 4.0l0.34375 1.328125l0.40625 -1.34375l1.171875 -3.984375l1.140625 0l-2.15625 6.90625l-1.21875 0l-1.09375 -4.140625l-0.265625 -1.171875l-1.40625 5.3125l-1.21875 0z" fill-rule="nonzero"/><path fill="#000000" d="m537.9821 427.38535l0 -13.359375l2.65625 0l3.156311 9.453125q0.4375 1.328125 0.640625 1.984375q0.234375 -0.734375 0.703125 -2.140625l3.203125 -9.296875l2.375 0l0 13.359375l-1.703125 0l0 -11.171875l-3.875 11.171875l-1.593811 0l-3.859375 -11.375l0 11.375l-1.703125 0zm21.103333 0l-1.640625 0l0 -10.453125q-0.59375 0.5625 -1.5625 1.140625q-0.953125 0.5625 -1.71875 0.84375l0 -1.59375q1.375 -0.640625 2.40625 -1.5625q1.03125 -0.921875 1.453125 -1.78125l1.0625 0l0 13.40625z" fill-rule="nonzero"/><path fill="#000000" d="m702.4821 427.38535l0 -13.359375l2.65625 0l3.15625 9.453125q0.4375 1.328125 0.640625 1.984375q0.234375 -0.734375 0.703125 -2.140625l3.203125 -9.296875l2.375 0l0 13.359375l-1.703125 0l0 -11.171875l-3.875 11.171875l-1.59375 0l-3.859375 -11.375l0 11.375l-1.703125 0zm14.9314575 -3.53125l1.640625 -0.21875q0.28125 1.40625 0.953125 2.015625q0.6875 0.609375 1.65625 0.609375q1.15625 0 1.953125 -0.796875q0.796875 -0.796875 0.796875 -1.984375q0 -1.125 -0.734375 -1.859375q-0.734375 -0.734375 -1.875 -0.734375q-0.46875 0 -1.15625 0.171875l0.1875 -1.4375q0.15625 0.015625 0.265625 0.015625q1.046875 0 1.875 -0.546875q0.84375 -0.546875 0.84375 -1.671875q0 -0.90625 -0.609375 -1.5q-0.609375 -0.59375 -1.578125 -0.59375q-0.953125 0 -1.59375 0.609375q-0.640625 0.59375 -0.8125 1.796875l-1.640625 -0.296875q0.296875 -1.640625 1.359375 -2.546875q1.0625 -0.90625 2.65625 -0.90625q1.09375 0 2.0 0.46875q0.921875 0.46875 1.40625 1.28125q0.5 0.8125 0.5 1.71875q0 0.859375 -0.46875 1.578125q-0.46875 0.703125 -1.375 1.125q1.1875 0.28125 1.84375 1.140625q0.65625 0.859375 0.65625 2.15625q0 1.734375 -1.28125 2.953125q-1.265625 1.21875 -3.21875 1.21875q-1.765625 0 -2.921875 -1.046875q-1.15625 -1.046875 -1.328125 -2.71875z" fill-rule="nonzero"/><path fill="#000000" fill-opacity="0.0" d="m635.3555 100.00076l156.72443 0l0 41.322845l-156.72443 0z" fill-rule="evenodd"/><path fill="#ffffff" d="m673.5315 130.76076l0 -15.859367l3.671875 0l0 15.859367l-3.671875 0zm7.1812134 0l0 -12.187492l3.375 0l0 3.328125l-0.625 -0.96875q0.625 -1.25 1.796875 -1.890625q1.171875 -0.65625 2.65625 -0.65625q1.6875 0 2.9375 0.859375q1.265625 0.84375 1.671875 2.59375l-1.25 -0.34375q0.609375 -1.421875 1.953125 -2.265625q1.359375 -0.84375 3.09375 -0.84375q1.453125 0 2.578125 0.578125q1.125 0.578125 1.765625 1.78125q0.640625 1.1875 0.640625 3.03125l0 6.9843674l-3.53125 0l0 -6.4374924q0 -1.46875 -0.609375 -2.171875q-0.609375 -0.703125 -1.71875 -0.703125q-0.765625 0 -1.390625 0.359375q-0.609375 0.34375 -0.953125 1.046875q-0.328125 0.703125 -0.328125 1.796875l0 6.1093674l-3.53125 0l0 -6.4374924q0 -1.46875 -0.609375 -2.171875q-0.59375 -0.703125 -1.703125 -0.703125q-0.78125 0 -1.390625 0.359375q-0.609375 0.34375 -0.953125 1.046875q-0.328125 0.703125 -0.328125 1.796875l0 6.1093674l-3.546875 0zm30.969482 0.1875q-1.53125 0 -2.6875 -0.671875q-1.15625 -0.6875 -1.8125 -2.078125q-0.640625 -1.4062424 -0.640625 -3.5312424q0 -2.15625 0.609375 -3.53125q0.625 -1.390625 1.78125 -2.0625q1.15625 -0.6875 2.75 -0.6875q1.734375 0 3.09375 0.78125q1.375 0.78125 2.171875 2.1875q0.8125 1.40625 0.8125 3.3125q0 1.921875 -0.8125 3.328125q-0.796875 1.4062424 -2.171875 2.1874924q-1.359375 0.765625 -3.09375 0.765625zm-7.203125 4.203125l0 -16.578117l3.375 0l0 2.484375l-0.0625 3.625l0.234375 3.6093674l0 6.859375l-3.546875 0zm6.59375 -7.109375q0.890625 0 1.578125 -0.40624237q0.6875 -0.40625 1.109375 -1.15625q0.421875 -0.765625 0.421875 -1.8125q0 -1.0625 -0.421875 -1.8125q-0.421875 -0.75 -1.109375 -1.15625q-0.6875 -0.40625 -1.578125 -0.40625q-0.875 0 -1.578125 0.40625q-0.703125 0.40625 -1.109375 1.15625q-0.40625 0.75 -0.40625 1.8125q0 1.046875 0.40625 1.8125q0.40625 0.75 1.109375 1.15625q0.703125 0.40624237 1.578125 0.40624237zm16.319458 2.71875l0 -2.375l-0.234375 -0.5312424l0 -4.25q0 -1.140625 -0.6875 -1.765625q-0.6875 -0.640625 -2.109375 -0.640625q-0.984375 0 -1.921875 0.3125q-0.9375 0.296875 -1.59375 0.828125l-1.265625 -2.46875q0.984375 -0.703125 2.390625 -1.09375q1.40625 -0.390625 2.859375 -0.390625q2.78125 0 4.328125 1.328125q1.546875 1.3125 1.546875 4.09375l0 6.9531174l-3.3125 0zm-3.71875 0.1875q-1.421875 0 -2.453125 -0.484375q-1.015625 -0.5 -1.5625 -1.328125q-0.53125 -0.84375 -0.53125 -1.8906174q0 -1.078125 0.53125 -1.890625q0.53125 -0.828125 1.6875 -1.28125q1.15625 -0.46875 3.015625 -0.46875l3.234375 0l0 2.0625l-2.859375 0q-1.25 0 -1.71875 0.40625q-0.453125 0.40625 -0.453125 1.015625q0 0.6875 0.53125 1.0781174q0.53125 0.390625 1.46875 0.390625q0.875 0 1.578125 -0.40625q0.703125 -0.42186737 1.015625 -1.2343674l0.546875 1.6249924q-0.375 1.171875 -1.40625 1.796875q-1.015625 0.609375 -2.625 0.609375zm16.194519 0q-1.96875 0 -3.515625 -0.796875q-1.53125 -0.8125 -2.40625 -2.2343674q-0.875 -1.4375 -0.875 -3.25q0 -1.828125 0.875 -3.25q0.875 -1.421875 2.40625 -2.21875q1.546875 -0.8125 3.515625 -0.8125q1.9375 0 3.359375 0.8125q1.421875 0.796875 2.109375 2.296875l-2.75 1.46875q-0.46875 -0.859375 -1.1875 -1.265625q-0.703125 -0.40625 -1.546875 -0.40625q-0.90625 0 -1.640625 0.40625q-0.71875 0.40625 -1.140625 1.15625q-0.421875 0.75 -0.421875 1.8125q0 1.0625 0.421875 1.8125q0.421875 0.75 1.140625 1.15625q0.734375 0.40624237 1.640625 0.40624237q0.84375 0 1.546875 -0.39061737q0.71875 -0.40625 1.1875 -1.28125l2.75 1.484375q-0.6875 1.4843674 -2.109375 2.2968674q-1.421875 0.796875 -3.359375 0.796875zm12.664917 0q-2.140625 0 -3.34375 -1.09375q-1.203125 -1.109375 -1.203125 -3.2812424l0 -10.703125l3.53125 0l0 10.65625q0 0.765625 0.40625 1.1875q0.40625 0.42186737 1.109375 0.42186737q0.84375 0 1.4375 -0.45311737l0.953125 2.4843674q-0.546875 0.390625 -1.3125 0.59375q-0.75 0.1875 -1.578125 0.1875zm-6.421875 -9.656242l0 -2.71875l8.4375 0l0 2.71875l-8.4375 0z" fill-rule="nonzero"/><path fill="#000000" fill-opacity="0.0" d="m408.53928 385.05588l0 -156.7244l41.322845 0l0 156.7244z" fill-rule="evenodd"/><path fill="#ffffff" d="m439.2993 366.7493l-15.859375 0l0 -3.671875l12.875 0l0 -7.953125l2.984375 0l0 11.625zm0 -13.434326l-12.1875 0l0 -3.546875l12.1875 0l0 3.546875zm-13.890625 -1.78125q0 0.96875 -0.5625 1.59375q-0.5625 0.609375 -1.40625 0.609375q-0.84375 0 -1.40625 -0.609375q-0.5625 -0.625 -0.5625 -1.59375q0 -0.96875 0.53125 -1.578125q0.53125 -0.625 1.375 -0.625q0.875 0 1.453125 0.609375q0.578125 0.59375 0.578125 1.59375zm11.40625 -7.960144l-4.3125 -0.09375l-5.390625 -5.6875l0 -4.21875l5.546875 5.46875l1.5 1.828125l2.65625 2.703125zm2.484375 2.921875l-16.8125 0l0 -3.546875l16.8125 0l0 3.546875zm0 -9.09375l-5.125 4.125l-2.734375 -2.21875l7.859375 -6.1875l0 4.28125zm0.1875 -11.287231q0 2.09375 -0.8125 3.671875q-0.828125 1.5625 -2.234375 2.4375q-1.421875 0.859375 -3.234375 0.859375q-1.828125 0 -3.25 -0.84375q-1.421875 -0.859375 -2.21875 -2.328125q-0.8125 -1.484375 -0.8125 -3.34375q0 -1.78125 0.765625 -3.21875q0.75 -1.4375 2.171875 -2.28125q1.421875 -0.84375 3.390625 -0.84375q0.203125 0 0.46875 0.03125q0.25 0.015625 0.484375 0.046875l0 9.890625l-2.0625 0l0 -8.03125l0.609375 1.359375q-0.953125 0 -1.65625 0.390625q-0.703125 0.375 -1.09375 1.0625q-0.40625 0.671875 -0.40625 1.578125q0 0.90625 0.40625 1.59375q0.390625 0.6875 1.109375 1.078125q0.71875 0.390625 1.6875 0.390625l0.546875 0q0.984375 0 1.75 -0.4375q0.765625 -0.453125 1.15625 -1.25q0.390625 -0.8125 0.390625 -1.890625q0 -0.984375 -0.28125 -1.71875q-0.296875 -0.734375 -0.890625 -1.34375l2.03125 -1.875q0.953125 0.828125 1.46875 2.109375q0.515625 1.265625 0.515625 2.90625zm-0.1875 -8.233582l-16.8125 0l0 -3.546875l16.8125 0l0 3.546875zm0 -6.819519l-12.1875 0l0 -3.546875l12.1875 0l0 3.546875zm-13.890625 -1.78125q0 0.96875 -0.5625 1.59375q-0.5625 0.609375 -1.40625 0.609375q-0.84375 0 -1.40625 -0.609375q-0.5625 -0.625 -0.5625 -1.59375q0 -0.96875 0.53125 -1.578125q0.53125 -0.625 1.375 -0.625q0.875 0 1.453125 0.609375q0.578125 0.59375 0.578125 1.59375zm13.890625 -5.038269l-16.8125 0l0 -3.546875l8.0 0l-1.015625 0.796875q-1.234375 -0.65625 -1.890625 -1.875q-0.65625 -1.21875 -0.65625 -2.796875q0 -1.4375 0.578125 -2.578125q0.578125 -1.15625 1.78125 -1.8125q1.1875 -0.65625 3.03125 -0.65625l6.984375 0l0 3.53125l-6.4375 0q-1.46875 0 -2.171875 0.65625q-0.703125 0.640625 -0.703125 1.8125q0 0.84375 0.359375 1.515625q0.34375 0.671875 1.078125 1.046875q0.71875 0.359375 1.84375 0.359375l6.03125 0l0 3.546875zm0.1875 -21.558594q0 1.953125 -0.8125 3.46875q-0.828125 1.5 -2.234375 2.375q-1.421875 0.875 -3.234375 0.875q-1.828125 0 -3.25 -0.875q-1.421875 -0.875 -2.21875 -2.375q-0.8125 -1.515625 -0.8125 -3.46875q0 -1.921875 0.8125 -3.4375q0.796875 -1.515625 2.203125 -2.375q1.40625 -0.859375 3.265625 -0.859375q1.8125 0 3.234375 0.859375q1.40625 0.859375 2.234375 2.375q0.8125 1.515625 0.8125 3.4375zm-2.90625 0q0 -0.875 -0.40625 -1.578125q-0.40625 -0.703125 -1.15625 -1.109375q-0.765625 -0.40625 -1.8125 -0.40625q-1.0625 0 -1.8125 0.40625q-0.75 0.40625 -1.15625 1.109375q-0.40625 0.703125 -0.40625 1.578125q0 0.890625 0.40625 1.59375q0.40625 0.703125 1.15625 1.125q0.75 0.421875 1.8125 0.421875q1.046875 0 1.8125 -0.421875q0.75 -0.421875 1.15625 -1.125q0.40625 -0.703125 0.40625 -1.59375zm2.90625 -14.839813q0 1.953125 -0.8125 3.46875q-0.828125 1.5 -2.234375 2.375q-1.421875 0.875 -3.234375 0.875q-1.828125 0 -3.25 -0.875q-1.421875 -0.875 -2.21875 -2.375q-0.8125 -1.515625 -0.8125 -3.46875q0 -1.921875 0.8125 -3.4375q0.796875 -1.515625 2.203125 -2.375q1.40625 -0.859375 3.265625 -0.859375q1.8125 0 3.234375 0.859375q1.40625 0.859375 2.234375 2.375q0.8125 1.515625 0.8125 3.4375zm-2.90625 0q0 -0.875 -0.40625 -1.578125q-0.40625 -0.703125 -1.15625 -1.109375q-0.765625 -0.40625 -1.8125 -0.40625q-1.0625 0 -1.8125 0.40625q-0.75 0.40625 -1.15625 1.109375q-0.40625 0.703125 -0.40625 1.578125q0 0.890625 0.40625 1.59375q0.40625 0.703125 1.15625 1.125q0.75 0.421875 1.8125 0.421875q1.046875 0 1.8125 -0.421875q0.75 -0.421875 1.15625 -1.125q0.40625 -0.703125 0.40625 -1.59375zm2.90625 -14.261688q0 1.71875 -0.78125 3.109375q-0.78125 1.375 -2.1875 2.1875q-1.40625 0.796875 -3.3125 0.796875q-1.921875 0 -3.328125 -0.796875q-1.40625 -0.8125 -2.171875 -2.1875q-0.78125 -1.390625 -0.78125 -3.109375q0 -1.546875 0.6875 -2.703125q0.671875 -1.15625 2.0625 -1.78125q1.375 -0.640625 3.53125 -0.640625q2.125 0 3.53125 0.609375q1.390625 0.609375 2.078125 1.765625q0.671875 1.140625 0.671875 2.75zm-2.90625 -0.609375q0 -0.875 -0.40625 -1.5625q-0.40625 -0.703125 -1.15625 -1.125q-0.765625 -0.421875 -1.8125 -0.421875q-1.0625 0 -1.8125 0.421875q-0.75 0.421875 -1.15625 1.125q-0.40625 0.6875 -0.40625 1.5625q0 0.875 0.40625 1.578125q0.40625 0.703125 1.15625 1.125q0.75 0.421875 1.8125 0.421875q1.046875 0 1.8125 -0.421875q0.75 -0.421875 1.15625 -1.125q0.40625 -0.703125 0.40625 -1.578125zm2.71875 -3.203125l-2.484375 0l-3.625 -0.0625l-3.609375 0.21875l-7.09375 0l0 -3.53125l16.8125 0l0 3.375z" fill-rule="nonzero"/><path fill="#000000" fill-opacity="0.0" d="m862.2545 223.23436l-298.70868 189.13387" fill-rule="evenodd"/><path stroke="#27173a" stroke-width="1.0" stroke-linejoin="round" stroke-linecap="butt" d="m862.2545 223.23436l-293.6394 185.92415" fill-rule="evenodd"/><path fill="#27173a" stroke="#27173a" stroke-width="1.0" stroke-linecap="butt" d="m567.7315 407.763l-2.9505005 3.8231812l4.7177124 -1.0321655z" fill-rule="evenodd"/><path fill="#000000" fill-opacity="0.0" d="m781.39624 373.516l-133.32281 0" fill-rule="evenodd"/><path stroke="#27173a" stroke-width="1.0" stroke-linejoin="round" stroke-linecap="butt" d="m781.39624 373.516l-127.322815 0" fill-rule="evenodd"/><path fill="#27173a" stroke="#27173a" stroke-width="1.0" stroke-linecap="butt" d="m654.0734 371.86426l-4.538086 1.6517334l4.538086 1.6517334z" fill-rule="evenodd"/><path fill="#000000" fill-opacity="0.0" d="m785.69543 329.90103l-56.472412 81.73227" fill-rule="evenodd"/><path stroke="#27173a" stroke-width="1.0" stroke-linejoin="round" stroke-linecap="butt" d="m785.69543 329.90103l-53.061768 76.79599" fill-rule="evenodd"/><path fill="#27173a" stroke="#27173a" stroke-width="1.0" stroke-linecap="butt" d="m731.27484 405.7581l-1.2208252 4.672516l3.9385986 -2.7946472z" fill-rule="evenodd"/></g></svg>